<svg xmlns="http://www.w3.org/2000/svg" viewBox="0 0 167 33" enable-background="new 0 0 167 33"><defs><filter id="a" filterUnits="userSpaceOnUse" x="0" y="0" width="167" height="33"><feColorMatrix values="1 0 0 0 0 0 1 0 0 0 0 0 1 0 0 0 0 0 1 0"/></filter></defs><mask maskUnits="userSpaceOnUse" x="0" y="0" width="167" height="33" id="b"><path fill="#fff" d="M0 0h167v33H0z" filter="url(#a)"/></mask><path d="M20.2 24.4c-1.1 0-2-.4-2.7-1.1l.6-.7v.1c.2.3.9.9 2.1.9 1.1 0 1.5-.6 1.5-1.1 0-.7-.8-1-1.7-1.2-1.1-.3-2.3-.6-2.3-1.9 0-1.1 1-1.9 2.4-1.9 1 0 1.8.3 2.4 1l-.6.7v-.1c-.6-.6-1.4-.8-1.9-.8-.8 0-1.3.4-1.3 1s.7.8 1.6 1c1.1.3 2.4.6 2.4 2.1.1.9-.6 2-2.5 2zm-4-.1h-1v-3h-3.6v3h-1v-6.8h1v2.9h3.6v-2.9h1v6.8zm6.6-8.1h-1v-3h-3.6v3h-1V9.4h1v2.9h3.6V9.4h1v6.8zm-11.2-3.9h1.7c.7 0 1.1-.4 1.1-1s-.4-1-1.1-1h-1.7v2zm0 3h1.8c.7 0 1.2-.4 1.2-1.1 0-.5-.4-1.1-1.2-1.1h-1.8v2.2zm1.9.9h-2.9V9.4h2.8c1.2 0 2 .7 2 1.8 0 .8-.5 1.3-1 1.5.7.2 1.2.9 1.2 1.6 0 1.2-.8 1.9-2.1 1.9zm14.2 8.4l-.1-.3c.2 0 .4-.1.5-.3.1-.2.1-.3 0-.4-.3-.2-.6.8-1.2.4-.2-.2-.3-.5-.1-.8.2-.2.3-.4.6-.4l.1.3c-.2 0-.3.2-.4.3-.1.1-.1.2 0 .3.2.1.6-.8 1.2-.4.3.2.3.5.1.9-.2.2-.5.3-.7.4zm-1.3 1.8l-1.3-1.2.8-.9.2.2-.6.6.3.2.6-.6.2.2-.6.6.3.3.6-.6.2.2-.7 1zm-2.6 1c-.3-.4-.2-.9.2-1.3.3-.2.6-.2.8-.1l-.2.3c-.1-.1-.3-.1-.5 0-.3.2-.3.5-.1.8.2.3.5.3.8.1.1-.1.2-.3.2-.4l.3-.1c0 .2 0 .5-.3.8-.3.4-.9.3-1.2-.1zm-.7 1.4l-.8-1.5.3-.2.8 1.5-.3.2zm-2 .8l-1.2-1.4.4-.1.9 1.1v-1.4l.4-.1v1.8l-.5.1zm-2.1-.7c0-.1-.1-.2-.3-.2l-.4.1.1.5.4-.1c.2 0 .3-.1.2-.3zm.2 1.2l-.4-.5h-.3l.1.6-.4.1-.3-1.7.8-.1c.4-.1.6.1.7.5 0 .3-.1.5-.3.6l.5.6-.4-.1zm-3.4.2l.1-1.7h1.2v.3h-.9v.4h.8v.3h-.8v.4h.9v.3h-1.3zm-2.5-.6l.3-.2c.1.1.3.3.5.3s.3 0 .3-.1c.1-.3-1-.3-.8-.9.1-.3.3-.5.8-.4.3.1.5.2.6.4l-.3.2c-.1-.2-.3-.2-.5-.3-.2 0-.3 0-.3.1-.1.3 1 .3.8.9-.1.3-.3.5-.8.4-.3-.1-.5-.2-.6-.4zm-2.2-.5l.6-1.6 1.2.4-.1.3-.9-.3-.1.3.8.3-.1.3-.8-.3-.2.4.8.3-.1.3-1.1-.4zm-1.5-.8l.7-1-1.1.8-.1-.1.3-1.3-.7 1-.3-.2.9-1.4.4.3-.2 1.1.9-.7.4.3-.8 1.4-.4-.2zm-1.8-2.3c.2-.2.3-.5 0-.8-.2-.2-.5-.2-.8 0-.2.2-.3.5 0 .8.3.2.6.2.8 0zm-1-1c.4-.4.9-.4 1.3 0s.4.9 0 1.3-.9.4-1.3 0-.4-1 0-1.3zm-1.5-.6l.6-.4-.5-.7-.6.4-.2-.3 1.5-.9.2.3-.6.4.5.7.6-.4.2.3-1.5.9-.2-.3zm23.5-8.2h.7l1-.7v.4l-.7.4.7.4v.4l-1-.6h-.7v-.3zm1.1-2.2l-.8-.1.1.5.7-.4zm-1.2.7l.3-.2-.1-.7h-.3l-.1-.4 1.8.3.1.4-1.6 1-.1-.4zm-.8-2.6l1-.7-1.2.2-.2-.4 1.4-1.1.2.4-1 .8 1.3-.2.1.3-1 .8 1.3-.2.2.4-1.8.2-.3-.5zm-.3-3.3l-.8.2.3.4.5-.6zm-.8 1.2l.2-.2-.4-.6-.3.1L26 9l1.8-.5.3.4-1 1.5-.3-.3zm-1.6-1.9l.5-.5-.6-.5-.5.5-.3-.2 1.2-1.3.3.2-.5.5.6.5.5-.4.3.2-1.2 1.3-.3-.3zm-2.3-1.7l.7-1.2-.4-.3.2-.3 1.2.7-.2.3-.4-.2-.7 1.2-.4-.2zm-1.2-2.1l-.5.6.5.2v-.8zm0 1.4v-.3l-.7-.2-.2.2-.4-.2L21.7 4l.4.2V6l-.4-.2zm-2.4-.7l.1-.7-.8-.1-.1.7-.4-.1.3-1.7.4.1-.1.7h.8l.1-.7.4.2-.3 1.7-.4-.1zM14.7 5l-.2-1.7 1.2-.1v.3l-.9.1V4l.8-.1v.3H15v.4l.9-.1v.3l-1.2.2zm-1.6-.9c-.1-.1-.2-.2-.3-.1l-.4.1.1.4.4-.1c.1 0 .2-.1.2-.3zm.3 1.1l-.5-.5-.3.1.2.6-.4.1-.5-1.6.8-.2c.3-.1.6.1.7.4.1.3 0 .5-.2.6l.6.5h-.4zm-2.2.9l-.8-1.5.3-.2.8 1.5-.3.2zm-1.1.6l-.5-.6-.6.5.4.6-.3.2-1-1.4.3-.2.4.5.7-.5-.5-.5.3-.2 1 1.4-.2.2zM7.2 8.8v-.3c.2 0 .4-.1.6-.2.1-.2.1-.3 0-.4-.2-.2-.8.6-1.2.2-.2-.2-.2-.6 0-.8.2-.2.5-.3.7-.4l.1.3c-.2.1-.4.2-.5.3-.1.1-.1.2 0 .3.1.2.7-.7 1.1-.2.3.2.3.5 0 .9-.3.2-.5.3-.8.3zm-.4 1l-.9.1.1.2.4.3-.2.3-1.5-1 .2-.3.6.4-.2-.9.3-.4.3 1H7l-.2.3zm-2.3 1.5c-.1-.1-.3 0-.3.1l-.2.4.5.2.2-.4c0-.1 0-.2-.2-.3zm1.1.5l-.7.1-.1.2.6.2-.1.3-1.7-.6.3-.7c.2-.3.5-.4.8-.3.3.1.3.3.3.5l.8-.1-.2.4zm-.9 3L3 14.4l.3-1.2.3.1-.2.8.4.1.2-.8.3.1-.2.8.4.1.2-.8.3.1-.3 1.1zM4 16c-.1 0-.2.1-.2.2v.5h.4v-.5c0-.1 0-.2-.2-.2zm-.7 0c-.1 0-.2.1-.2.2v.5h.4v-.5c0-.1-.1-.2-.2-.2zm1.2 1.1H2.8v-.9c0-.3.2-.5.5-.5.2 0 .4.1.4.3 0-.2.2-.3.4-.3.3 0 .5.2.5.5l-.1.9zm-.4 3.5c.3 0 .5-.2.5-.5s-.2-.5-.5-.5-.5.2-.5.5c.1.3.3.5.5.5zm25.1 0c.3 0 .5-.2.5-.5s-.2-.5-.5-.5-.5.2-.5.5c.1.3.3.5.5.5zM16.7 32.2C8 32.2.9 25.2.9 16.7S8 1.2 16.7 1.2c8.7 0 15.8 7 15.8 15.5s-7.1 15.5-15.8 15.5zm0-31.8C7.5.4 0 7.7 0 16.7S7.5 33 16.7 33s16.7-7.3 16.7-16.3C33.3 7.7 25.9.4 16.7.4zm145.8 19.1v-.7h-4.9v.7c.8.1 1.9.1 1.9.7 0 .3-1.4 2.7-3.2 5.5-1.8-3.2-3.1-5.5-3.1-5.7 0-.4 1.2-.4 1.8-.5v-.7h-6v.7c.3 0 .8.1 1.2.3.4.3.7.6 1.2 1.3.9 1.5 1.6 2.9 2.6 4.7.3.6.6 1.3.6 1.5v3.3c0 .5-.1.8-.6 1-.3.1-1.2.2-1.6.2v.7h6.6v-.7c-.4 0-1.4-.2-1.6-.3-.5-.2-.6-.6-.6-1v-2.6c0-.9.1-1.2.6-2.1 1.2-2.1 2-3.5 3.1-4.9.5-.7.6-.7 1.1-1 0-.2.7-.4.9-.4zm-17.7 7.4h-4.2l2.1-5.3 2.1 5.3zm5.7 5.7v-.7c-.3 0-.9-.1-1.2-.3-.4-.3-.7-.6-.9-1.1l-4.7-11.9h-.7c-1.5 3.9-3.2 8.1-4.6 11.6-.3.7-.6 1.1-1 1.3-.3.2-.9.3-1.3.4v.7h5.3v-.7c-.6 0-2-.2-2-.9 0-.3.1-.6.2-1.1.2-.6.5-1.4.7-2.1h4.9l1.2 3.1c0 .1.1.3.1.4 0 .4-1.2.5-1.8.6v.7h5.8zm-12.8-13.1v-.7h-5.1v.7c.9.1 1.9.2 1.9.9 0 .3-.1.8-.4 1.8-.4 1.7-1.1 4.1-2.1 7.3L128.6 19h-1l-3.5 10.2c-1.3-4.5-2.3-7.7-2.5-8.7 0-.1-.1-.4-.1-.5 0-.4 1.2-.5 1.8-.5v-.7h-5.7v.7c.3 0 .9.1 1.2.3.4.3.6.6.7 1l3.4 11.9h.9l3.7-10.6 3.5 10.6h.9c1.3-4.2 2.8-9 3.6-11.6.2-.7.5-1 .9-1.3.4-.1.9-.3 1.3-.3zm-24.5 7.4H109l2.1-5.3 2.1 5.3zm5.7 5.7v-.7c-.3 0-.9-.1-1.2-.3-.4-.3-.7-.6-.9-1.1l-4.7-11.9h-.8c-1.5 3.9-3.2 8.1-4.6 11.6-.3.7-.6 1.1-1 1.3-.3.2-.9.3-1.3.4v.7h5.3v-.7c-.6 0-2-.2-2-.9 0-.3.1-.6.2-1.1.2-.6.5-1.4.8-2.1h4.9l1.2 3.1c0 .1.1.3.1.4 0 .4-1.2.5-1.8.6v.7h5.8zm-15.5 0v-.7c-.3 0-1.1-.1-1.3-.3-.4-.2-.6-.6-.6-1v-9.9c0-.4.1-.8.6-1 .3-.1 1-.2 1.3-.2v-.7h-5.8v.7c.3 0 1 .2 1.3.3.4.2.6.5.6 1V25h-6.6v-4.3c0-.4.1-.8.5-1 .3-.1 1-.2 1.3-.2v-.7h-5.8v.7c.3 0 1 .2 1.3.3.4.2.6.5.6 1v9.9c0 .4-.1.8-.6 1-.2.1-1 .1-1.3.2v.7h5.8v-.7c-.3 0-1.1-.1-1.3-.3-.4-.2-.5-.6-.5-1v-4.8h6.6v4.9c0 .4-.1.8-.6 1-.2.1-1 .1-1.3.2v.7h5.8zM87 22.5v-3.7H74.8v3.7h.7c.2-.9 1.3-2.8 2.2-2.9.5-.1 1.3-.1 1.6-.1h.6v11.1c0 .4-.1.8-.6 1-.3.1-1.3.2-1.6.2v.7h6.6v-.7c-.4 0-1.4-.2-1.6-.3-.5-.2-.6-.6-.6-1v-11h.6c.5 0 1.1 0 1.6.1.9.1 1.9 2 2.2 2.9h.5zm-17.4 4.4h-4.2l2.1-5.3 2.1 5.3zm5.7 5.7v-.7c-.3 0-.9-.1-1.2-.3-.4-.3-.7-.6-.9-1.1l-4.7-11.9h-.8c-1.5 3.9-3.2 8.1-4.6 11.6-.3.7-.6 1.1-1 1.3-.3.2-.9.3-1.3.4v.7h5.3v-.7c-.6 0-2-.2-2-.9 0-.3.1-.6.2-1.1.2-.6.5-1.4.7-2.1h5l1.2 3.1c0 .1.1.3.1.4 0 .4-1.2.5-1.8.6v.7h5.8zm-15.5 0v-.7c-.3 0-1.1-.1-1.3-.3-.4-.2-.6-.6-.6-1v-9.9c0-.4.1-.8.6-1 .3-.1 1-.2 1.3-.2v-.7H54v.7c.3 0 1 .2 1.3.3.4.2.6.5.6 1V25h-6.6v-4.3c0-.4.1-.8.5-1 .3-.1 1-.2 1.3-.2v-.7h-5.8v.7c.3 0 1 .2 1.3.3.4.2.6.5.6 1v9.9c0 .4-.1.8-.6 1-.2.1-1 .1-1.3.2v.7h5.8v-.7c-.3 0-1.1-.1-1.3-.3-.4-.2-.5-.6-.5-1v-4.8h6.6v4.9c0 .4-.1.8-.6 1-.2.1-1 .1-1.3.2v.7h5.8zM167 10.2h-.7c-.2.6-1 2.2-1.6 2.9-.5.5-1.6.5-2.7.5-2.1 0-2.4-.2-2.4-1.8V7.5h1.3c1.2 0 1.5.3 1.8.6.2.3.6 1.2.6 1.8h.7V4.4h-.7c-.1.5-.3 1.3-.6 1.7-.2.3-.5.6-1.8.6h-1.3V1.1h2c.7 0 1.2 0 1.7.1.9.1 1.9 1.6 2.2 2.5h.7V.3h-10.8V1c.3 0 1.1.2 1.5.3.5.2.6.5.6 1v10.1c0 .4-.1.8-.6 1-.2.1-1.1.2-1.5.2v.7h11.4l.2-4.1zm-18.2-6.3c0 2-1.4 3.3-3.2 3.3h-1.3v-6h1.7c1.5-.1 2.8.7 2.8 2.7zm5.3 10.4v-.7c-.4 0-1-.1-1.3-.3-.5-.2-.9-.5-1.5-1.3-1.5-1.9-1.9-2.6-3.5-4.6 2-.6 3.5-1.6 3.5-3.8 0-2.4-2.2-3.3-4.5-3.3h-6.6V1c.3 0 1 .1 1.3.2.5.2.6.6.6 1v10.2c0 .4-.1.8-.6 1-.2.1-1 .2-1.3.2v.7h6.1v-.7c-.3 0-1.2-.1-1.4-.2-.5-.2-.6-.6-.6-1V8h1.4c1.6 2 2.9 3.7 4.6 6.4h3.8zm-16.8 0v-.7c-.4 0-1.3-.2-1.5-.3-.5-.2-.6-.5-.6-1V2.2c0-.4.1-.8.6-1 .4-.1 1.1-.2 1.5-.2V.3h-6.5V1c.4 0 1.1.2 1.5.3.5.2.6.5.6 1v10.2c0 .4-.1.8-.6 1-.3.1-1.1.1-1.5.2v.7h6.5zm-9.3 0v-.7c-.3 0-1.1-.1-1.3-.3-.4-.2-.6-.6-.6-1V2.2c0-.4.1-.8.6-1 .3-.1 1-.2 1.3-.2V.3h-5.9V1c.3 0 1 .2 1.3.3.4.2.6.5.6 1v4.3h-6.7V2.2c0-.4.1-.8.6-1 .4-.1 1-.2 1.3-.2V.3h-5.9V1c.3 0 1 .2 1.3.3.4.2.6.5.6 1v10.1c0 .4-.1.8-.6 1-.2.1-1 .1-1.3.2v.7h5.9v-.7c-.3 0-1.1-.1-1.3-.3-.4-.2-.6-.6-.6-1V7.5h6.7v5c0 .4-.1.8-.6 1-.2.1-1 .1-1.3.2v.7h5.9zm-30.3 0v-.7c-.3 0-.9-.1-1.3-.3-.5-.2-1.1-.6-1.6-1.3C93 9.9 92 8.7 90.1 6.5c1.8-1.6 2.7-2.8 4.4-4.7.6-.7 2.1-.8 2.3-.8V.3h-5.4V1c.4 0 1.5.1 1.5.5 0 1-2.4 3.6-4.9 5.6h-.2V2.2c0-.4.1-.8.6-1 .3-.1 1-.2 1.3-.2V.3h-5.9V1c.3 0 1 .2 1.3.3.4.2.6.5.6 1v10.1c0 .4-.1.8-.6 1-.2.1-1 .1-1.3.2v.7h5.9v-.7c-.3 0-1.1-.2-1.3-.3-.4-.2-.6-.6-.6-1V7.5h.2c2 2.1 4 4.5 5.6 6.9h4.1zM77 3.9c0 2-1.4 3.3-3.2 3.3h-1.3v-6h1.7c1.6-.1 2.8.7 2.8 2.7zm5.4 10.4v-.7c-.4 0-1-.1-1.3-.3-.5-.2-.9-.5-1.5-1.3-1.5-1.9-1.9-2.6-3.5-4.6 2-.6 3.5-1.6 3.5-3.8 0-2.4-2.2-3.3-4.5-3.3h-6.6V1c.3 0 1 .1 1.3.2.5.2.6.6.6 1v10.2c0 .4-.1.8-.6 1-.2.1-1 .2-1.3.2v.7h6.1v-.7c-.3 0-1.2-.1-1.4-.2-.5-.2-.6-.6-.6-1V8H74c1.6 2 2.9 3.7 4.6 6.4h3.8zm-16.8-4.1h-.7c-.2.6-1 2.2-1.6 2.9-.5.5-1.6.5-2.7.5-2.1 0-2.4-.2-2.4-1.8V7.5h1.3c1.2 0 1.5.3 1.8.6.2.3.6 1.2.6 1.8h.7V4.4h-.7c-.1.5-.3 1.3-.6 1.7-.2.3-.5.6-1.8.6H58V1.1h2c.7 0 1.2 0 1.7.1.9.1 1.9 1.6 2.2 2.5h.7V.3H53.8V1c.3 0 1.1.2 1.5.3.5.2.6.5.6 1v10.1c0 .4-.1.8-.6 1-.2.1-1.1.2-1.5.2v.7h11.4l.4-4.1zm-17.3 0c0 1.7-.6 3.4-3.1 3.4-1.2 0-2.1-.4-2.1-1.3V7.4H45c2.2-.1 3.3 1.1 3.3 2.8zm-.7-6.6c0 1.7-1 3-3.2 3h-1.3V1.1h1.6c1.3 0 2.9.4 2.9 2.5zm3.2 6.9c0-2.6-2.5-3.5-4.2-3.7 1.8-.4 3.4-1.4 3.4-3.4C50 1.1 47.7.3 45.8.3H39V1c.3 0 .9.1 1.3.3.4.2.6.6.6 1v10.1c0 .4-.1.8-.6 1-.3.1-1 .2-1.4.2v.7h7c2.3 0 4.9-1.1 4.9-3.8zm54.3 4.1c-1.5 0-3-.5-4-1l-.5.7h-.8l-.2-4.8h.8c.7 2.2 2.2 4.3 4.9 4.3 2.1 0 3.2-1.1 3.2-2.6 0-1.1-.9-2.1-2.3-2.6-1.3-.5-2-.6-3.3-1.2-1.8-.7-2.8-1.8-2.8-3.7 0-2.2 2.2-3.8 4.8-3.8 1.5 0 2.6.4 3.6 1l.5-.7h.8l.1 4.7h-.9c-.7-2.1-1.6-4.2-4.3-4.2-1.4 0-2.7 1-2.7 2.2 0 1.2.8 2 2.1 2.5 1.1.5 2.1.7 3.1 1.1 1.9.7 3.4 1.6 3.4 3.8 0 2.6-2.4 4.3-5.5 4.3z" mask="url(#b)" fill="#888"/></svg>
