<svg id="Layer_1" data-name="Layer 1" xmlns="http://www.w3.org/2000/svg" viewBox="0 0 89.32 91.76"><defs><style>.cls-1{fill:#4a39ac;}.cls-2{fill:#eceff2;}.cls-3{fill:#384850;}.cls-4{fill:#fff;}</style></defs><circle class="cls-1" cx="42.11" cy="38.55" r="30.58"/><path class="cls-2" d="M17.27,14.44H39.11V43.19H17.27Z"/><path class="cls-3" d="M39.11,43.69H17.27a.5.5,0,0,1-.5-.5V14.44a.5.5,0,0,1,.5-.5H39.11a.5.5,0,0,1,.5.5V43.19A.5.5,0,0,1,39.11,43.69Zm-21.34-1H38.61V14.94H17.77Z"/><path class="cls-4" d="M20.51,17.44H42.35V46.19H20.51Z"/><path class="cls-3" d="M42.35,46.69H20.51a.5.5,0,0,1-.5-.5V17.44a.5.5,0,0,1,.5-.5H42.35a.5.5,0,0,1,.5.5V46.19A.5.5,0,0,1,42.35,46.69ZM21,45.69H41.85V17.94H21Z"/><path class="cls-4" d="M85.6,48.77A3.22,3.22,0,0,1,88.82,52V81.47a3.22,3.22,0,0,1-3.22,3.22H39.19A3.22,3.22,0,0,1,36,81.47V52a3.22,3.22,0,0,1,3.22-3.22H85.6Z"/><path class="cls-3" d="M85.6,85.18H39.19a3.73,3.73,0,0,1-3.72-3.72V52a3.73,3.73,0,0,1,3.72-3.72H85.6A3.73,3.73,0,0,1,89.32,52V81.46A3.73,3.73,0,0,1,85.6,85.18ZM39.19,49.27A2.72,2.72,0,0,0,36.47,52V81.47a2.72,2.72,0,0,0,2.72,2.72H85.6a2.72,2.72,0,0,0,2.72-2.72V52a2.72,2.72,0,0,0-2.72-2.72H39.19Z"/><path class="cls-3" d="M88.82,80.18H36a.5.5,0,1,1,0-1H88.82a.5.5,0,0,1,0,1Z"/><path class="cls-2" d="M36,81.13a3.4,3.4,0,0,0,3.22,3.55H85.6a3.4,3.4,0,0,0,3.22-3.55v-2H36Z"/><path class="cls-3" d="M85.6,85.18H39.19a3.9,3.9,0,0,1-3.72-4.05v-2a.5.5,0,0,1,.5-.5H88.81a.5.5,0,0,1,.5.5v2A3.89,3.89,0,0,1,85.6,85.18ZM36.48,79.67v1.46a2.9,2.9,0,0,0,2.72,3.05H85.6a2.9,2.9,0,0,0,2.72-3.05V79.67Z"/><path class="cls-3" d="M62.82,82.68H62a.5.5,0,0,1,0-1h.85a.5.5,0,0,1,0,1Z"/><path class="cls-2" d="M75.37,40.9A13.14,13.14,0,1,1,58.9,32.28,13.14,13.14,0,0,1,75.37,40.9Z"/><path class="cls-2" d="M0,0"/><path class="cls-4" d="M75.44,41.17,62.82,45.12l8.69,9.55A13.13,13.13,0,0,0,75.44,41.17Z"/><path class="cls-4" d="M0,0"/><path class="cls-4" d="M75.44,41.17c0-.09,0-.18-.07-.27a13.06,13.06,0,0,0-5.81-7.35L62.8,45.12Z"/><path class="cls-4" d="M0,0"/><path class="cls-3" d="M68.62,91.76H55.32a.5.5,0,0,1,0-1h13.3a.5.5,0,0,1,0,1Z"/><path class="cls-2" d="M66.07,91.26h-8.2l.92-6.58h6.36Z"/><path class="cls-2" d="M0,0"/><path class="cls-3" d="M37.54,26.43H25.32a.5.5,0,0,1,0-1H37.53a.5.5,0,0,1,0,1Z"/><path class="cls-3" d="M37.54,31.43H25.32a.5.5,0,0,1,0-1H37.53a.5.5,0,0,1,0,1Z"/><path class="cls-3" d="M37.54,36.43H25.32a.5.5,0,0,1,0-1H37.53a.5.5,0,0,1,0,1Z"/><path class="cls-4" d="M59.15,25.05a.5.5,0,0,1-.5-.5V20.19a.5.5,0,0,1,1,0v4.36A.51.51,0,0,1,59.15,25.05Z"/><path class="cls-4" d="M61.33,22.86H57a.5.5,0,0,1,0-1h4.36a.5.5,0,0,1,0,1Z"/><path class="cls-4" d="M25.32,57.36a.5.5,0,0,1-.5-.5V52.5a.5.5,0,0,1,1,0v4.36A.5.5,0,0,1,25.32,57.36Z"/><path class="cls-4" d="M27.5,55.18H23.14a.5.5,0,1,1,0-1H27.5a.5.5,0,0,1,.5.5A.5.5,0,0,1,27.5,55.18Z"/><path class="cls-3" d="M20.51,72.51A.5.5,0,0,1,20,72V67.65a.5.5,0,0,1,1,0V72A.5.5,0,0,1,20.51,72.51Z"/><path class="cls-3" d="M22.69,70.33H18.33a.5.5,0,0,1,0-1h4.36a.5.5,0,0,1,0,1Z"/><path class="cls-3" d="M53.34,65.59a3.37,3.37,0,1,1,3.37-3.37A3.37,3.37,0,0,1,53.34,65.59Zm0-5.73a2.37,2.37,0,1,0,2.37,2.37A2.38,2.38,0,0,0,53.34,59.86ZM0,0"/></svg>