<svg viewBox="0 0 105 48" xmlns="http://www.w3.org/2000/svg" xmlns:xlink="http://www.w3.org/1999/xlink"><defs><path id="a" d="M0 48h105V0H0z"/></defs><g fill="none" fill-rule="evenodd"><path d="M104 47.999l-.286-.467c.167-.092.187-.152.187-.252-.002-.173-.195-.28-.508-.28H103v1h.22v-.449h.268l.28.448H104zm-.78-.562v-.315h.146c.213 0 .304.06.306.152 0 .083-.07.163-.306.163h-.146z" fill="#878787"/><path d="M104.001 48a1 1 0 1 1 .999-1.001c0 .552-.45 1.001-.999 1.001m0-1.874a.872.872 0 1 0 0 0M49.182 38l-2.857 8.16-3.442-8.11H42L46.138 48h.388l2.958-8.771L52.494 48h.388L57 38.05h-.903l-3.394 8.103L49.81 38zM60 38v10h6v-.645h-5.05V38zM67 38v10h6v-.645h-5.054V38z" fill="#878787"/><mask id="b" fill="#fff"><use xlink:href="#a"/></mask><path fill="#878787" mask="url(#b)" d="M73 48h1V38h-1zM58 48h1V38h-1zM79.304 38L75 48h.75l1.475-3.437h4.55L83.246 48H84l-4.302-10h-.394zm.188 1.251l2.01 4.675h-4.003l1.993-4.675zM94.238 38l-3.737 4.65L86.763 38H86v10h.763v-8.868h.028l3.71 4.673 3.705-4.673h.032V48H95V38zM101.539 39.853c-.678-.877-1.643-1.085-2.382-1.085-1.287 0-2.26.881-2.26 2.047 0 2.858 5.103 1.492 5.103 5.248 0 1.649-1.365 2.937-3.112 2.937-.878 0-1.82-.24-2.749-.944v-.973c1.046.99 1.87 1.148 2.703 1.148 1.274 0 2.259-.928 2.259-2.137 0-3.049-5.101-1.715-5.101-5.248 0-1.585 1.379-2.841 3.08-2.846.864 0 1.966.353 2.459.943v.91zM16 38v10h6v-1.292h-4.323V38zM22 38v10h6v-1.292h-4.323V38zM28 38v10h7v-1.292h-5.268v-3.106h4.934V42.31h-4.934v-3.02h5.109V38zM42 47.997l-2.012-4.671c1.196-.91 1.331-1.527 1.318-2.528C41.29 39.068 39.94 38 37.74 38H35v10h1.562v-4.471s1.29 0 1.86-.003l1.963 4.47H42zm-5.438-5.627v-3.138h1.003c1.513 0 2.118.573 2.135 1.51.016.837-.463 1.628-2.135 1.628h-1.003zM8 38v10h7v-1.292H9.733V43.6h4.932v-1.29H9.733v-3.02h5.11V38zM5.315 38l-.48.552-3.48 4.02V38H0v9.998h1.356v-3.432l1.508-1.755L4.839 48h1.4l-.495-1.29-1.914-5.025 2.06-2.395L7 38zM0 0v32h4.431v-7.506l3.25-3.254L12.2 32h4.489l-5.97-14.277 4.19-4.678L23.038 32h1.705l6.097-14.66L37.034 32h1.68L48 10.418h-4.547l-5.588 13.095-5.422-13.095h-3.136l-5.465 13.095-5.62-13.095h-5.894L4.43 18.36V0z"/></g></svg>
