<svg viewBox="0 0 133 25" xmlns="http://www.w3.org/2000/svg" xmlns:xlink="http://www.w3.org/1999/xlink"><title>Group 19</title><defs><path id="a" d="M0 .137h18.867V24H0z"/><path id="c" d="M.077.138h21.781V24H.077z"/></defs><g fill="none" fill-rule="evenodd"><g transform="translate(0 1)"><mask id="b" fill="#fff"><use xlink:href="#a"/></mask><path d="M9.065 11.631H5.316V4.73h3.718s3.75.03 3.75 3.217c0 3.186-2.336 3.685-3.719 3.685zm4.578 3.499S18.1 13.505 18.1 8.258c0-2.467-.491-4.185-2.059-5.778C14.35.762 11.493.137 10.263.137H0V24h5.316v-7.777h2.95L12.814 24h6.053l-5.224-8.87z" fill="#888" mask="url(#b)"/></g><path fill="#888" d="M23 1h16v4.586H28.23v4.995h9.501v4.586h-9.47v5.121h7.087L32.934 25H23zM39 25L51.5 1H58L45.468 25zM58 25h5.244V10.11l5.616 7.445h.218l5.647-7.445V25H80V1h-5.616l-5.4 7.76L63.586 1 58 11.524z"/><g transform="translate(84 1)"><mask id="d" fill="#fff"><use xlink:href="#c"/></mask><path d="M8.44 14.286l2.513-7.246 2.335 7.246H8.44zM13.436.138H8.53L.077 24H5.19l1.743-5.154h7.891L16.627 24h5.231L13.435.138z" fill="#888" mask="url(#d)"/></g><path fill="#888" d="M108.343 1l7.041 11.78L108 25h5.982l4.487-8.073L122.893 25H129l-7.447-12.314L128.72 1h-6.014l-4.144 7.54L114.418 1zM131 3.552c-.862 0-1.552-.69-1.552-1.552 0-.862.69-1.552 1.552-1.552.862 0 1.552.69 1.552 1.552.034.828-.69 1.552-1.552 1.552M131 0c-1.103 0-2 .897-2 2s.897 2 2 2 2-.897 2-2-.897-2-2-2"/><path d="M130.465 1.875c.07 0 .116-.031.163-.062.046-.032.046-.125.046-.22 0-.187-.07-.28-.209-.28h-.14v.562h.14zm.116-.875c.117 0 .21.032.28.125.07.094.093.219.093.375 0 .125-.024.25-.07.313-.047.093-.093.125-.186.156.07 0 .116.031.163.094.023.062.046.125.07.25v.281c0 .094 0 .187.023.25 0 .062.023.094.046.125V3h-.326c-.023-.031-.023-.062-.023-.094v-.5c0-.062-.023-.125-.046-.187a.17.17 0 0 0-.14-.063h-.163v.813H130V1h.581z" fill="#888"/></g></svg>
