<svg xmlns="http://www.w3.org/2000/svg" viewBox="0 0 177 21" enable-background="new 0 0 177 21"><defs><filter id="a" filterUnits="userSpaceOnUse" x="170.2" y=".3" width="5.9" height="20.7"><feColorMatrix values="1 0 0 0 0 0 1 0 0 0 0 0 1 0 0 0 0 0 1 0"/></filter></defs><mask maskUnits="userSpaceOnUse" x="170.2" y=".3" width="5.9" height="20.7" id="b"><path fill="#fff" d="M170.2.3h5.9v20.6h-5.9z" filter="url(#a)"/></mask><path mask="url(#b)" fill="#888" d="M176.1 20.9h-3.8V4.1h-2.1V.3h5.9z"/><defs><filter id="c" filterUnits="userSpaceOnUse" x="152.9" y=".3" width="13.2" height="20.6"><feColorMatrix values="1 0 0 0 0 0 1 0 0 0 0 0 1 0 0 0 0 0 1 0"/></filter></defs><mask maskUnits="userSpaceOnUse" x="152.9" y=".3" width="13.2" height="20.6" id="d"><path fill="#fff" d="M152.9.3h13.3v20.6h-13.3z" filter="url(#c)"/></mask><path d="M166.2 20.9H153l8.3-12.1c.5-.7.8-1.4.8-2.2 0-1.1-1-2.4-2.5-2.4-1.7 0-2.6 1.2-2.7 2.8H153c0-3.8 2.8-6.7 6.4-6.7 3.6 0 6.4 2.9 6.4 6.4 0 1.7-.4 2.8-1.4 4.3l-4.1 6.1h5.9v3.8z" mask="url(#d)" fill="#888"/><path fill="#888" d="M139.4 0l-5.9 8.6-5.9-8.6H123l8.5 12.5V21h3.9v-8.5L144 0z"/><defs><filter id="e" filterUnits="userSpaceOnUse" x="106.1" y=".3" width="15.6" height="20.7"><feColorMatrix values="1 0 0 0 0 0 1 0 0 0 0 0 1 0 0 0 0 0 1 0"/></filter></defs><mask maskUnits="userSpaceOnUse" x="106.1" y=".3" width="15.6" height="20.7" id="f"><path fill="#fff" d="M106.1.3h15.5v20.6h-15.5z" filter="url(#e)"/></mask><path d="M109.8 4.1v6.1h5c1.6 0 2.9-1.4 2.9-3.1S116.4 4 114.8 4h-5zm0 16.8H106V.3h8.9c3.7 0 6.7 3.1 6.7 6.9 0 3.2-2.1 5.8-4.9 6.7l4.8 7.1H117l-4.6-6.8h-2.5v6.7z" mask="url(#f)" fill="#888"/><defs><filter id="g" filterUnits="userSpaceOnUse" x="84.1" y=".3" width="16.7" height="20.7"><feColorMatrix values="1 0 0 0 0 0 1 0 0 0 0 0 1 0 0 0 0 0 1 0"/></filter></defs><mask maskUnits="userSpaceOnUse" x="84.1" y=".3" width="16.7" height="20.7" id="h"><path fill="#fff" d="M84.1.3h16.7V21H84.1z" filter="url(#g)"/></mask><path d="M97 .3h3.8v12.2c0 4.7-3.8 8.5-8.4 8.5-4.6 0-8.3-3.8-8.3-8.5V.3h3.8v12c0 2.6 2.1 4.8 4.6 4.8s4.6-2.2 4.6-4.8V.3z" mask="url(#h)" fill="#888"/><defs><filter id="i" filterUnits="userSpaceOnUse" x="63" y=".3" width="15.8" height="20.7"><feColorMatrix values="1 0 0 0 0 0 1 0 0 0 0 0 1 0 0 0 0 0 1 0"/></filter></defs><mask maskUnits="userSpaceOnUse" x="63" y=".3" width="15.8" height="20.7" id="j"><path fill="#fff" d="M63 .3h15.8v20.6H63z" filter="url(#i)"/></mask><path mask="url(#j)" fill="#888" d="M78.8 4.1h-6v16.8h-3.7V4.1H63V.3h15.8z"/><defs><filter id="k" filterUnits="userSpaceOnUse" x="40.7" y=".3" width="17.1" height="20.7"><feColorMatrix values="1 0 0 0 0 0 1 0 0 0 0 0 1 0 0 0 0 0 1 0"/></filter></defs><mask maskUnits="userSpaceOnUse" x="40.7" y=".3" width="17.1" height="20.7" id="l"><path fill="#fff" d="M40.7.3h17.1v20.6H40.7z" filter="url(#k)"/></mask><path mask="url(#l)" fill="#888" d="M44.4 20.9h-3.7V.3h3.8L54 14.4V.3h3.8v20.6h-3.9l-9.5-14z"/><path fill="#888" d="M23 0v21h13v-3.9h-9.3v-4.6h7.5V8.6h-7.5V3.9H36V0z"/><defs><filter id="m" filterUnits="userSpaceOnUse" x="0" y=".3" width="16.6" height="20.7"><feColorMatrix values="1 0 0 0 0 0 1 0 0 0 0 0 1 0 0 0 0 0 1 0"/></filter></defs><mask maskUnits="userSpaceOnUse" x="0" y=".3" width="16.6" height="20.7" id="n"><path fill="#fff" d="M0 .3h16.6V21H0z" filter="url(#m)"/></mask><path d="M14.5 15.4l2.2 3.2c-1.8 1.5-4 2.4-6.5 2.4C4.5 21 0 16.3 0 10.6S4.5.3 10.1.3c2.5 0 4.8.9 6.5 2.4l-2.2 3.2c-1.1-1.1-2.7-1.7-4.3-1.7-3.5 0-6.3 2.9-6.3 6.4 0 3.6 2.8 6.4 6.3 6.4 1.7.1 3.2-.6 4.4-1.6" mask="url(#n)" fill="#888"/></svg>
