<svg xmlns="http://www.w3.org/2000/svg" viewBox="0 0 111.9 44.8" enable-background="new 0 0 111.9 44.8"><path fill="#878787" d="M26 30.7h3l-1.4-3zM82.8 25.4H79v1.2h3.9c.8 0 .8-1.2-.1-1.2M47.1 11.4h-1.4v4.9h1.4c1.3 0 2.3-.6 2.3-2.3s-.9-2.6-2.3-2.6M24.5 16.4c1.3 0 2.3-1 2.3-2.3s-1-2.3-2.3-2.3c-1.3 0-2.3 1-2.3 2.3s1 2.3 2.3 2.3M15.5 25.5h-2.7v1.2h2.8c.8 0 .8-1.2-.1-1.2M15.5 29.4h-2.7v1.4h2.8c.8 0 .8-1.4-.1-1.4M101 29.1c.5-.3.8-.7.8-1.5 0-.9-.6-1.4-1.8-1.4h-2.7v1.7h2.3v2.7h-2.3v1.7h2.5c1 0 2.1-.5 2.1-1.5.1-1.1-.5-1.5-.9-1.7"/><defs><filter id="a" filterUnits="userSpaceOnUse" x="0" y="0" width="111.9" height="44.8"><feColorMatrix values="1 0 0 0 0 0 1 0 0 0 0 0 1 0 0 0 0 0 1 0"/></filter></defs><mask maskUnits="userSpaceOnUse" x="0" y="0" width="111.9" height="44.8" id="b"><path fill="#fff" d="M0 0h111.9v44.8H0z" filter="url(#a)"/></mask><path d="M105.1 16.9c0 1.7-1.4 3.1-3.1 3.1h-3.7c-1.7 0-3.1-1.4-3.1-3.1 0 1.7-1.4 3.1-3.1 3.1h-3.7c-1.6 0-3-1.2-3.1-2.8-.6 1.1-2 2.8-4.3 2.8h-4.1c-3.7 0-5.8-3.2-5.8-6.1 0-3.2 2.8-5.8 5.8-5.8h3.9c2.3 0 3.6 2.2 3.6 3.3 0 1.1-.2 3.7-3.7 3.7h-2.4c-1.3 0-2.5-.8-2.4-2.8h3.9c.9 0 .9-1.2 0-1.2h-2.5c-1.5 0-2.3 1.2-2.3 2.7 0 1.4.9 2.6 2.2 2.6h8.1V8h4.3v8.3h5.6V8h4.3v8.3h5.6v.6zm-.8 15.7c0 1-.8 1.8-1.8 1.8h-9c-1 0-1.8-.8-1.8-1.8v-8.3c0-1 .8-1.8 1.8-1.8h9c1 0 1.8.8 1.8 1.8v8.3zM83 34.4L79 28v6.4h-4.3v-2.8c-.6 1.1-2 2.8-4.3 2.8h-4.9c-3.7 0-5.8-3.2-5.8-6.2 0-3.2 2.8-5.8 5.8-5.8H70c2.3 0 3.5 2.2 3.5 3.2 0 1.1-.3 3.7-3.9 3.7h-2.8c-1.3 0-2.5-.8-2.4-2.8h4c.8 0 .8-1.2-.1-1.2H66c-1.5 0-2.3 1.3-2.3 2.7s.9 2.6 2.2 2.6h8.8v-8.3h9.4c2.2 0 3.3 2 3.3 3.2 0 1.1-.3 2.9-2.9 3.4l3.1 5.4H83zm-25.4 2.4L54 30.1l-1.2 1.5v2.8h-4.3v-12h4.3v3.8l3.5-3.8h4.5L56 28.1h1.7l4.5 8.7h-4.6zM41.4 20v-3c-.1 1.7-1.4 3-3.1 3h-3.7c-1.7 0-3.1-1.4-3.1-3.1V8h4.3v8.3h5.6V8h6.8c1.5 0 5 2.1 5 5.9 0 3.7-3.1 6.1-5 6.1h-6.8zm5.7 14.4h-2.6c-.8 0-1.8.2-2.8-1.1l-3-4v5.1h-9.2s-3.1.3-3.9-2.8l-1.2 2.8h-3.8l4.1-9.6c.3-.9 1-2.3 2.8-2.3h1.9l4.9 11.4V22.4h3.9l4.7 6.2v-6.2h4.3v12zm-30 0H8.3v-12h8c2.7 0 3.6 2 3.6 3.4s-.3 2.1-.9 2.5c2.8 2.1 1.5 6.1-1.9 6.1zM6.8 14.2c0-4.4 3.7-6.2 5.7-6.2h5.2v3.2H13c-1.2 0-2.2 1.3-2.2 2.8s1.3 2.3 2.1 2.3h5.9c-.3-.7-.5-1.5-.5-2.3 0-3.4 2.7-6 6.1-6 3.4 0 6.1 2.7 6.1 6s-2.7 6-6.1 6c-2.2 0-4.2-1.2-5.2-3-.7 1.8-3.1 2.9-4 2.9h-2.8c-1.2.1-5.6-1.2-5.6-5.7zM54 8h4.3v7.5c0 1.1 1.6 1.1 1.6 0V8h4.3v7.3c0 1.2 1.6 1.3 1.6 0v-4.1c0-1.3.7-3.2 2.8-3.2h1.5v8.9c0 1.7-1.4 3.1-3.1 3.1h-2c-1.4 0-2.2-.4-3-1.7-.6 1.2-1.6 1.7-3 1.7h-2c-1.7 0-3.1-1.4-3.1-3.1V8zM0 44.8h111.9V0H0v44.8z" mask="url(#b)" fill="#878787"/><path d="M99.1 28.2h-2.3v-2.6h2.3V24h-2.2c-1.7 0-2.8 1.7-2.8 3s1 3.1 2.9 3.1h2.1v-1.9z" fill="#878787"/></svg>
