<svg id="Layer_1" data-name="Layer 1" xmlns="http://www.w3.org/2000/svg" viewBox="0 0 74.33 87.14"><defs><style>.cls-1{fill:#4a39ac;}.cls-2{fill:#fff;}.cls-3{fill:#384850;}</style></defs><circle class="cls-1" cx="43.75" cy="40.34" r="30.58"/><path class="cls-2" d="M40.93,87.14,23.41,86V54a1,1,0,0,1,1.05-1.05H70.12a1,1,0,0,1,1,1.05V86Z"/><path class="cls-3" d="M71.16,86.5a.5.5,0,0,1-.5-.5V54a.55.55,0,0,0-.55-.55H24.46a.55.55,0,0,0-.55.55V86a.5.5,0,0,1-1,0V54a1.55,1.55,0,0,1,1.55-1.55H70.12A1.55,1.55,0,0,1,71.67,54V86A.52.52,0,0,1,71.16,86.5Z"/><path class="cls-2" d="M68.49,56.57a.93.93,0,0,0-.93-.93H27a.93.93,0,0,0-.93.93V82.33a.93.93,0,0,0,.93.93H67.56a.93.93,0,0,0,.93-.93Z"/><path class="cls-3" d="M67.56,83.76H27a1.43,1.43,0,0,1-1.43-1.43V56.57A1.43,1.43,0,0,1,27,55.14H67.56A1.43,1.43,0,0,1,69,56.57V82.33A1.44,1.44,0,0,1,67.56,83.76ZM27,56.14a.43.43,0,0,0-.43.43V82.33a.43.43,0,0,0,.43.43H67.56a.43.43,0,0,0,.43-.43V56.57a.43.43,0,0,0-.43-.43ZM0,0,0,0,0,0,0,0"/><path class="cls-3" d="M0,0"/><path class="cls-3" d="M0,0"/><path class="cls-3" d="M0,0"/><path class="cls-3" d="M0,0"/><path class="cls-3" d="M0,0"/><path class="cls-3" d="M0,0"/><path class="cls-2" d="M36.88,15.4A2.61,2.61,0,0,1,39.49,18V37.59a7.79,7.79,0,0,1-7.79,7.79H12.12a2.61,2.61,0,0,1-2.61-2.61V18a2.61,2.61,0,0,1,2.61-2.61Z"/><path class="cls-3" d="M31.7,45.88H12.12A3.11,3.11,0,0,1,9,42.77V18a3.11,3.11,0,0,1,3.11-3.11H36.89A3.11,3.11,0,0,1,40,18V37.59A8.32,8.32,0,0,1,31.7,45.88Zm-19.58-30A2.12,2.12,0,0,0,10,18V42.78a2.12,2.12,0,0,0,2.11,2.11H31.7A7.3,7.3,0,0,0,39,37.6V18a2.12,2.12,0,0,0-2.11-2.11Z"/><path class="cls-3" d="M33,45.78a.5.5,0,0,1-.5-.5V40.17a1.81,1.81,0,0,1,1.8-1.8h5.11a.5.5,0,0,1,0,1H34.27a.8.8,0,0,0-.8.8v5.11A.5.5,0,0,1,33,45.78Zm2.61-22.06H13.42a.5.5,0,0,1,0-1H35.58a.5.5,0,0,1,.5.5A.5.5,0,0,1,35.58,23.72Zm0,5.22H13.42a.5.5,0,1,1,0-1H35.58a.5.5,0,0,1,.5.5A.5.5,0,0,1,35.58,28.94Zm0,5.21H13.42a.5.5,0,0,1,0-1H35.58a.5.5,0,0,1,.5.5A.5.5,0,0,1,35.58,34.15Zm-7.82,5.22H13.42a.5.5,0,0,1,0-1H27.76a.5.5,0,0,1,.5.5A.5.5,0,0,1,27.76,39.37Z"/><path class="cls-3" d="M17.33,42a.5.5,0,0,1-.5-.5V19.31a.5.5,0,0,1,1,0V41.47A.5.5,0,0,1,17.33,42Z"/></svg>