<svg id="Layer_1" data-name="Layer 1" xmlns="http://www.w3.org/2000/svg" viewBox="0 0 78.25 83.7"><defs><style>.cls-1{fill:#4a39ac;}.cls-2{fill:#26d8ad;}.cls-3{fill:#e0e1e2;}.cls-4{fill:#384850;}.cls-5{fill:#fff;}</style></defs><circle class="cls-1" cx="39.93" cy="30.58" r="30.58"/><path class="cls-2" d="M0,0" transform="translate(-10.62 -8.21)"/><path class="cls-3" d="M28.52,71.54a6.31,6.31,0,1,1-6.31-6.31A6.31,6.31,0,0,1,28.52,71.54Z" transform="translate(-10.62 -8.21)"/><path class="cls-4" d="M22.21,78.34A6.81,6.81,0,1,1,29,71.53,6.82,6.82,0,0,1,22.21,78.34Zm0-12.61A5.81,5.81,0,1,0,28,71.54,5.81,5.81,0,0,0,22.21,65.73Z" transform="translate(-10.62 -8.21)"/><path class="cls-3" d="M33.31,91.41H11.12V84.75a4.9,4.9,0,0,1,4.9-4.9h12.4a4.9,4.9,0,0,1,4.9,4.9Z" transform="translate(-10.62 -8.21)"/><path class="cls-4" d="M33.31,91.91H11.12a.5.5,0,0,1-.5-.5V84.75a5.4,5.4,0,0,1,5.4-5.4h12.4a5.4,5.4,0,0,1,5.4,5.4v6.66A.52.52,0,0,1,33.31,91.91Zm-21.69-1H32.81V84.75a4.41,4.41,0,0,0-4.4-4.4H16a4.41,4.41,0,0,0-4.4,4.4Z" transform="translate(-10.62 -8.21)"/><path class="cls-4" d="M28.7,91.91a.5.5,0,0,1-.5-.5V87.15a.5.5,0,0,1,1,0v4.26A.5.5,0,0,1,28.7,91.91Zm-13,0a.5.5,0,0,1-.5-.5V87.15a.5.5,0,1,1,1,0v4.26A.5.5,0,0,1,15.72,91.91Z" transform="translate(-10.62 -8.21)"/><circle class="cls-5" cx="67.15" cy="63.33" r="6.31"/><path class="cls-4" d="M77.77,78.34a6.81,6.81,0,1,1,6.81-6.81A6.82,6.82,0,0,1,77.77,78.34Zm0-12.61a5.81,5.81,0,1,0,5.81,5.81A5.81,5.81,0,0,0,77.77,65.73Z" transform="translate(-10.62 -8.21)"/><path class="cls-5" d="M88.86,91.41H66.67V84.75a4.9,4.9,0,0,1,4.9-4.9H84a4.9,4.9,0,0,1,4.9,4.9v6.66Z" transform="translate(-10.62 -8.21)"/><path class="cls-5" d="M0,0" transform="translate(-10.62 -8.21)"/><path class="cls-4" d="M84.26,91.91a.5.5,0,0,1-.5-.5V87.15a.5.5,0,0,1,1,0v4.26A.5.5,0,0,1,84.26,91.91Zm-13,0a.5.5,0,0,1-.5-.5V87.15a.5.5,0,0,1,1,0v4.26A.5.5,0,0,1,71.28,91.91Z" transform="translate(-10.62 -8.21)"/><path class="cls-5" d="M48.37,21.46h-12a.5.5,0,0,1,0-1h12a.5.5,0,0,1,0,1Zm5.18,0H51.43a.5.5,0,0,1,0-1h2.12a.5.5,0,0,1,.5.5A.5.5,0,0,1,53.55,21.46Zm4.91,0H57.4a.5.5,0,0,1,0-1h1.06a.5.5,0,0,1,0,1Zm4.5,0H61.9a.5.5,0,0,1,0-1H63a.5.5,0,0,1,0,1Zm4.5,0H66.4a.5.5,0,0,1,0-1h1.06a.5.5,0,0,1,0,1Z" transform="translate(-10.62 -8.21)"/><path class="cls-4" d="M0,0" transform="translate(-10.62 -8.21)"/><path class="cls-4" d="M0,0" transform="translate(-10.62 -8.21)"/><path class="cls-4" d="M0,0" transform="translate(-10.62 -8.21)"/><path class="cls-5" d="M52.46,44.88H43.22A1.27,1.27,0,0,1,42,43.61V35.42a.5.5,0,0,1,1,0v8.19a.27.27,0,0,0,.27.27h9.24a.27.27,0,0,0,.27-.27V35.42a.5.5,0,0,1,1,0v8.19A1.27,1.27,0,0,1,52.46,44.88Z" transform="translate(-10.62 -8.21)"/><path class="cls-4" d="M0,0" transform="translate(-10.62 -8.21)"/></svg>