<svg viewBox="0 0 159 38" xmlns="http://www.w3.org/2000/svg" xmlns:xlink="http://www.w3.org/1999/xlink"><title>Group 21</title><defs><path id="a" d="M0 .23h17.713v26.759H0z"/><path id="c" d="M.093.26h20.886V27H.093z"/></defs><g fill="none" fill-rule="evenodd"><g transform="translate(0 3)"><mask id="b" fill="#fff"><use xlink:href="#a"/></mask><path d="M8.742 26.989c-2.06 0-4.292-.553-5.974-1.408l-1.571 1.402-.728.006-.47-8.892.84-.077c2.586 6.025 5.9 7.6 8.106 7.6 3.022 0 4.775-1.59 4.775-4.535 0-2.183-.821-3.355-4.701-5.002-1.294-.561-2.538-.895-3.791-1.498C2.358 13.179.673 11.072.673 7.899.673 3.239 4.862.29 8.58.29c2.195 0 3.441.433 4.665 1.123l.364.187L15.2.23h.67l.686 7.868-.819.102c-2.236-4.551-4.63-6.556-7.304-6.556-1.925 0-3.733 1.28-3.733 4.01 0 2.25 1.489 3.507 3.562 4.394 1.415.603 3.181 1.26 4.677 1.984 3.274 1.605 4.775 3.697 4.775 6.63 0 5.58-4.93 8.327-8.97 8.327" fill="#888" mask="url(#b)"/></g><path d="M30.526 11.1c-2.855 0-4.697 2.821-4.697 8.566 0 5.807 2.29 8.235 4.847 8.235 3.272 0 4.564-3.89 4.564-8.473 0-4.67-1.569-8.328-4.714-8.328m-.29 17.9C24.417 29 21 24.996 21 19.546 21 14.362 24.9 10 30.815 10 36.61 10 40 13.782 40 19.428 40 24.52 36.364 29 30.237 29M54 28.262C52.287 29.315 50.017 30 47.53 30c-2.202 0-3.845-1.192-3.668-4.851V14.094H41v-.562l3.554-2.805L47.396 7h.59v5.059h5.886v2.035h-5.886v10.237c0 1.404.24 2.213.884 2.747.354.296 1.127.716 2.49.716.623 0 1.823.01 2.608-.069l.032.537zM70.057 18.15c.117-2.746-.957-4.45-3.547-4.45-1.928 0-3.2.43-4.315.981l.007 12.937 2.288.837V29L55.248 29v-.544l2.574-.825-.008-23.64L55 2.226l.014-.387L62.054 0l.148.115-.007 13.684.164.08c1.74-1.48 3.927-3.15 6.772-3.15 3.568 0 5.321 2.374 5.321 5.553l-.026 11.346 2.574.827v.544h-9.248v-.544l2.3-.827.005-9.479zM91.52 16.813c-.114-2.89-.913-5.7-3.55-5.7-2.443 0-4.104 2.421-4.383 6.049l7.933-.349zm-7.963 1.338c-.052 4.536 1.316 8.247 5.78 8.247 2.14 0 3.511-.266 6.19-1.255l.24.473c-2.116 1.867-5.065 3.47-8.077 3.38-5.124-.153-8.69-3.706-8.69-9.189C79 14.287 83.222 10 88.266 10 93.643 10 96 13.762 96 18.14l-12.443.011zM107.727 13.628c-1.286-.04-2.402.265-3.393.636v12.561c1.582 1.529 3.677 1.924 4.82 1.824 2.843-.247 4.128-3.165 4.17-7.473.04-4.191-1.472-7.418-5.597-7.548M106.987 30c-2.16 0-4.715-.414-7.085-1.038V4.041L97 2.26l.017-.4L104.187 0l.147.125v13.26l.168.091c1.677-1.56 3.53-2.612 6.024-2.612 3.769 0 7.474 3.235 7.474 9.118C118 25.406 113.768 30 106.987 30" fill="#888"/><g transform="translate(117 11)"><mask id="d" fill="#fff"><use xlink:href="#c"/></mask><path d="M18.296 2.126L10.45 21.211C9.6 23 8.534 24.883 7.42 25.82c-.948.799-1.964 1.18-3.03 1.18-2.235 0-3.142-1.438-3.142-2.537 0-1.622 1.547-2.332 2.463-2.332 1.505 0 2.354.827 3.248 1.948.797-.886 1.453-1.919 1.946-2.816.278-.507.487-1.012.656-1.38.238-.52.379-.81.379-.81L2.63 1.76.094.794V.26h10.09v.538l-2.653.977 4.482 11.87.197.01 4.05-11.596L13.86.805V.26h7.12v.533l-2.684 1.332z" fill="#888" mask="url(#d)"/></g><path d="M151.71 29c-2.19 0-3.68-.297-5.71-1.048v-5.205l.766-.082c1.37 2.408 3.15 5.17 5.915 5.17 1.49 0 2.965-.871 2.965-3.045 0-1.542-1.08-2.445-4.421-3.71-3.383-1.265-5.1-2.805-5.1-5.651 0-2.966 2.995-5.429 6.542-5.429 2.069 0 3.932.252 5.086.688l.126 4.683-.762.21c-1.715-2.85-3.04-4.413-5.026-4.413-1.79 0-2.696 1.125-2.696 2.667 0 1.097.796 2.27 3.858 3.417 4.339 1.582 5.747 3.084 5.747 5.772 0 3.56-3.022 5.976-7.29 5.976M139 17l3.75-9H147l-7.117 9z" fill="#888"/></g></svg>
