<svg viewBox="0 0 179 59" xmlns="http://www.w3.org/2000/svg" xmlns:xlink="http://www.w3.org/1999/xlink"><title>Group 52</title><defs><path id="a" d="M.552.589h13.314v18.092H.552z"/><path id="c" d="M0 .586h33.647v24.24H0z"/><path id="e" d="M.253.641h6.099V11H.253z"/></defs><g fill="none" fill-rule="evenodd"><path d="M91.52 7.65c-.53-.613-1.415-.722-2.009-.613-.823.17-1.946 1.17-.706 2.121.174.167.118.392.118.392-.118 0-.177-.336-.59-.392-.709-.222-1.064 0-1.298.556-.118.505.057.949.59 1.23 1.063.554 1.18-.169 1.477-.169.233 0 .174.446.174.502 0 .667 0 .723.353.723.242 0 .175-.056.175-.723 0-.112 0-.614.067-.67.115-.225.526-.333.648.11 0 .114-.122 0-.237.226-.122.89 1.708.166 1.656-.505-.066-.501-.595-.78-1.127-.78-.53 0-.77.056-1.007.279-.293.282-.35.67-.35.67-.12 0-.238-1.007.883-1.228.532-.108 1.183.113 1.183.113.83-.834.418-1.393 0-1.841" fill="#878787"/><path d="M87.84 8.351c0-.136.106-.321.106-.321s-.47-.14-.783.185c-.367.463 0 .785 0 .785s.21-.14.366-.185c.155-.046.312-.046.471-.046-.104-.14-.16-.232-.16-.418" fill="#878787"/><g transform="translate(76)"><mask id="b" fill="#fff"><use xlink:href="#a"/></mask><path fill="#878787" mask="url(#b)" d="M8.682 9.608l5.184 5.046-4.09 4.027L.551 9.662 9.775.59l4.09 3.97z"/></g><path fill="#878787" d="M94.1 19l-4.05-4.018 4.959-4.928L90 5.015 94.05 1l8.95 9.054z"/><g transform="translate(0 18)"><mask id="d" fill="#fff"><use xlink:href="#c"/></mask><path d="M4.077.586c0 1.437.066 2.076.334 3.29l5.346 18.587L15.805.586h3.508l6.214 21.718 5.045-18.237c.368-1.66.402-2.779.435-3.481h2.64c-.702 1.405-1.003 2.108-1.47 3.353l-5.68 20.888h-3.443L16.673 2.853l-5.98 21.974H7.25L1.437 4.13C1.002 2.726.701 2.055 0 .586h4.077z" fill="#878787" mask="url(#d)"/></g><path d="M34 43c.466-.854.505-2.726.505-6.077V27.79c0-.986-.155-2.103-.505-2.825h3.495v11.958c0 3.351.04 5.223.505 6.077h-4zm3.961-23.26c0 .888-.854 1.71-1.98 1.71-1.127 0-1.981-.822-1.981-1.71 0-.886.854-1.74 1.98-1.74 1.127 0 1.981.854 1.981 1.74zM54 43h-3.29c.355-.844.387-2.696.387-6.01v-5.426c0-3.185-1.032-5.362-4.033-5.362-3.322 0-5.16 2.307-5.16 7.311v3.477c0 3.314.031 5.166.418 6.01H39c.387-.844.42-2.696.42-6.01v-9.033c0-.975-.13-2.08-.42-2.794h2.903v3.021C43.774 25.617 45.613 25 48.064 25c3.388 0 5.549 2.145 5.549 5.946v6.044c0 3.314.032 5.166.387 6.01M66.6 41.941c3.8 0 6.467-2.408 6.467-7.381 0-5.745-2.234-8.377-6.667-8.377-3.667 0-6.267 3.242-6.267 8.088 0 4.91 2.366 7.67 6.467 7.67m9.4.898h-2.667c-.433-.48-.6-1.636-.566-2.6C70.533 42.295 68.5 43 66.3 43c-4.1 0-9.3-2.889-9.3-8.954 0-5.038 4.166-8.985 9.3-8.985 2.2 0 4.833.705 6.666 3.305V20.76c0-.963-.1-2.054-.433-2.76h3.033v22.08c0 .962.134 2.054.434 2.76M79.854 32.43H91.92c0-4.623-2.4-7.615-5.838-7.615-3.341 0-5.806 3.297-6.228 7.614zm0 1.019c.195 5.063 2.044 8.565 6.584 8.565 2.627 0 4.67-1.189 6.097-5.335l1.85 1.596C92.47 41.708 89.13 43 86.34 43 80.957 43 77 39.091 77 33.075 77 28.079 80.795 24 85.725 24c4.086 0 8.983 2.651 9.275 9.449H79.854zM100.371 43H97c.393-.844.425-2.696.425-6.01v-9.033c0-.974-.13-2.079-.425-2.793h2.945v2.858c1.343-2.111 2.62-3.054 4.582-3.021.393 0 .623.032 1.473.26v2.47c-.786-.39-1.473-.553-2.094-.553-2.357 0-3.96 2.014-3.96 4.906v4.906c0 3.314.033 5.166.425 6.01M119.729 36.99c0 3.314.031 5.166.414 6.01h-3.286c.351-.844.383-2.696.383-6.01v-5.426c0-3.185-.67-5.362-3.668-5.362-1.883 0-3.701 1.625-3.701 4.809v5.979c0 3.314.032 5.166.415 6.01H107c.383-.844.415-2.696.415-6.01v-9.033c0-.975-.128-2.08-.415-2.794h2.87v2.21c.99-1.268 2.266-2.373 4.371-2.373 2.393 0 4.18 1.105 5.009 3.12.989-1.658 2.52-3.12 4.88-3.12 3.35 0 5.487 2.145 5.487 5.946v6.044c0 3.314.033 5.166.383 6.01h-3.254c.352-.844.383-2.696.383-6.01v-5.426c0-3.185-.702-5.362-3.668-5.362-2.297 0-3.732 2.08-3.732 5.037v5.75zM135.854 32.43h12.065c0-4.623-2.4-7.615-5.837-7.615-3.341 0-5.806 3.297-6.228 7.614zm0 1.019c.195 5.063 2.043 8.565 6.584 8.565 2.627 0 4.67-1.189 6.097-5.335l1.85 1.596C148.47 41.708 145.13 43 142.34 43c-5.384 0-9.341-3.909-9.341-9.925 0-4.996 3.794-9.075 8.724-9.075 4.087 0 8.984 2.651 9.276 9.449h-15.146zM156.371 43H153c.393-.844.425-2.696.425-6.01v-9.033c0-.974-.13-2.079-.425-2.793h2.945v2.858c1.343-2.111 2.62-3.054 4.582-3.021.393 0 .623.032 1.473.26v2.47c-.786-.39-1.473-.553-2.094-.553-2.357 0-3.96 2.014-3.96 4.906v4.906c0 3.314.033 5.166.425 6.01M163.854 32.43h12.065c0-4.623-2.4-7.615-5.837-7.615-3.341 0-5.806 3.297-6.228 7.614zm0 1.019c.195 5.063 2.043 8.565 6.584 8.565 2.627 0 4.67-1.189 6.097-5.335l1.85 1.596C176.47 41.708 173.13 43 170.34 43c-5.384 0-9.341-3.909-9.341-9.925 0-4.996 3.794-9.075 8.724-9.075 4.087 0 8.984 2.651 9.276 9.449h-15.146zM31.267 52.946c0 .077.03.124.09.17.195.11.871.203 1.457.203.315 0 .675-.015.991-.233.45-.311.796-1.011.796-2.022 0-1.648-.87-2.597-2.283-2.597-.39 0-.81.047-.946.077-.06.032-.105.079-.105.156v4.246zm-1.14-1.12c0-2.053 0-2.426-.031-2.846-.03-.45-.105-.668-.54-.73a4.103 4.103 0 0 0-.45-.032c-.046 0-.106-.062-.106-.11 0-.076.06-.108.21-.108.6 0 1.487.032 1.562.032.135 0 1.246-.032 1.651-.032.841 0 1.772.078 2.463.576.33.249.916.886.916 1.804 0 .98-.39 1.928-1.622 3.017 1.081 1.4 1.997 2.597 2.763 3.421.706.747 1.141.87 1.471.918.256.046.39.046.466.046.075 0 .12.062.12.11 0 .078-.075.108-.315.108h-.826c-.75 0-1.081-.077-1.411-.264-.57-.312-1.051-.948-1.803-1.944-.555-.715-1.14-1.57-1.426-1.929-.06-.062-.09-.077-.18-.077l-1.682-.032c-.06 0-.09.032-.09.109v.311c0 1.276 0 2.302.06 2.846.045.39.12.638.526.7.18.03.465.062.585.062.09 0 .105.062.105.11 0 .061-.06.108-.21.108-.72 0-1.561-.047-1.621-.047-.015 0-.901.047-1.307.047-.135 0-.21-.03-.21-.109 0-.047.03-.109.105-.109.12 0 .286-.031.406-.062.255-.062.285-.31.345-.7.075-.544.075-1.586.075-2.86v-2.335zM43.303 51.88c0-2.024 0-2.392-.035-2.807-.035-.444-.122-.659-.625-.72a5.56 5.56 0 0 0-.521-.031c-.053 0-.122-.061-.122-.107 0-.076.07-.108.243-.108.695 0 1.685.032 1.772.032.104 0 3.3.014 3.647 0 .296-.016.574-.062.695-.078.07-.015.14-.061.209-.061.052 0 .07.061.07.123 0 .092-.088.245-.122.613-.018.123-.052.706-.087.859-.018.062-.07.139-.14.139-.086 0-.12-.062-.12-.17 0-.092-.018-.306-.088-.46-.104-.215-.26-.307-1.094-.399-.26-.03-2.032-.045-2.206-.045-.07 0-.087.045-.087.137v3.544c0 .092 0 .138.087.138.19 0 2.206 0 2.553-.031.365-.03.591-.047.747-.184.105-.092.174-.169.226-.169.052 0 .087.03.087.108 0 .076-.087.29-.121.72-.035.261-.07.752-.07.844 0 .107-.035.245-.139.245-.07 0-.104-.045-.104-.123 0-.122 0-.26-.07-.429-.052-.183-.19-.337-.782-.399-.416-.046-2.05-.061-2.31-.061-.087 0-.104.045-.104.091v1.09c0 .445-.017 1.963 0 2.224.035.874.313 1.042 1.824 1.042.4 0 1.129 0 1.529-.137.399-.153.608-.385.694-.905.035-.153.07-.2.157-.2s.104.107.104.2c0 .091-.122.98-.208 1.257-.105.338-.26.338-.851.338-1.147 0-2.032-.031-2.658-.046-.643-.031-1.043-.031-1.268-.031-.035 0-.33 0-.66.016-.296.015-.643.03-.886.03-.156 0-.243-.03-.243-.108 0-.046.035-.107.121-.107.14 0 .33-.046.47-.06.295-.047.33-.308.399-.69.087-.538.087-1.566.087-2.823V51.88zM58.994 53.873c.058 0 .058-.03.044-.092l-1.263-3.535c-.072-.197-.145-.197-.218 0l-1.19 3.535c-.014.061 0 .092.044.092h2.583zM57.572 48.5c.16-.425.218-.5.305-.5.13 0 .174.181.304.47.233.546 2.279 5.873 3.063 7.831.464 1.153.812 1.32 1.088 1.411a1.7 1.7 0 0 0 .508.076c.073 0 .16.03.16.106s-.145.106-.29.106c-.189 0-1.133 0-2.017-.03-.248-.016-.45-.016-.45-.09 0-.061.028-.061.086-.092.073-.03.203-.137.116-.35L59.3 54.48c-.03-.061-.044-.076-.116-.076h-2.946c-.058 0-.102.03-.13.106l-.726 2.064c-.117.318-.19.637-.19.865 0 .258.219.349.436.349h.116c.102 0 .131.046.131.106 0 .076-.073.106-.189.106-.304 0-1.001-.046-1.146-.046-.13 0-.77.046-1.292.046-.16 0-.247-.03-.247-.106 0-.06.059-.106.116-.106.087 0 .276-.015.377-.03.58-.077.828-.532 1.075-1.184l3.004-8.074zM68.512 54.17c0 1.938.032 2.729.291 2.962.227.217.778.309 1.896.309.745 0 1.377-.015 1.718-.403.178-.201.291-.48.34-.744.016-.093.065-.17.146-.17.065 0 .097.062.097.2 0 .14-.097.931-.21 1.319-.098.31-.146.357-.908.357-1.02 0-1.815-.017-2.48-.047-.647-.015-1.133-.031-1.555-.031-.065 0-.308 0-.583.016-.292.015-.6.03-.826.03-.147 0-.227-.03-.227-.108 0-.047.032-.109.113-.109.13 0 .308-.031.438-.062.275-.061.307-.31.372-.697.081-.543.081-1.582.081-2.852v-2.326c0-2.046 0-2.419-.032-2.837-.033-.45-.114-.666-.584-.728a4.762 4.762 0 0 0-.486-.032c-.049 0-.113-.062-.113-.108 0-.077.064-.109.227-.109.648 0 1.54.032 1.62.032.065 0 1.134-.032 1.572-.032.146 0 .227.032.227.109 0 .046-.065.093-.114.093-.097 0-.307.015-.47.031-.42.078-.502.28-.534.744-.016.418-.016.79-.016 2.837v2.356zM86.303 51.88c0-2.024 0-2.392-.035-2.807-.035-.444-.122-.659-.625-.72a5.56 5.56 0 0 0-.521-.031c-.053 0-.122-.061-.122-.107 0-.076.07-.108.243-.108.695 0 1.685.032 1.772.032.105 0 3.3.014 3.647 0 .296-.016.573-.062.695-.078.07-.015.14-.061.209-.061.052 0 .07.061.07.123 0 .092-.088.245-.122.613-.018.123-.052.706-.088.859-.017.062-.07.139-.138.139-.087 0-.122-.062-.122-.17 0-.092-.017-.306-.087-.46-.104-.215-.26-.307-1.094-.399-.26-.03-2.032-.045-2.205-.045-.07 0-.088.045-.088.137v3.544c0 .092 0 .138.088.138.19 0 2.205 0 2.552-.031.365-.03.591-.047.747-.184.104-.092.174-.169.226-.169.052 0 .087.03.087.108 0 .076-.087.29-.121.72-.036.261-.07.752-.07.844 0 .107-.035.245-.14.245-.07 0-.103-.045-.103-.123 0-.122 0-.26-.07-.429-.052-.183-.191-.337-.782-.399-.416-.046-2.05-.061-2.31-.061-.087 0-.104.045-.104.091v1.09c0 .445-.017 1.963 0 2.224.035.874.313 1.042 1.824 1.042.4 0 1.129 0 1.529-.137.399-.153.608-.385.694-.905.035-.153.07-.2.157-.2s.104.107.104.2c0 .091-.122.98-.208 1.257-.105.338-.26.338-.852.338-1.146 0-2.031-.031-2.657-.046-.643-.031-1.042-.031-1.268-.031-.035 0-.33 0-.66.016-.296.015-.643.03-.886.03-.156 0-.243-.03-.243-.108 0-.046.035-.107.121-.107.14 0 .33-.046.47-.06.295-.047.33-.308.399-.69.087-.538.087-1.566.087-2.823V51.88z" fill="#878787"/><g transform="translate(96 48)"><mask id="f" fill="#fff"><use xlink:href="#e"/></mask><path d="M.472 10.644c-.203-.094-.219-.14-.219-.499 0-.651.067-1.18.084-1.397 0-.14.033-.218.117-.218.085 0 .135.048.135.156 0 .109 0 .296.05.482.235.962 1.345 1.303 2.336 1.303 1.461 0 2.217-.76 2.217-1.754 0-.947-.555-1.397-1.864-2.298l-.673-.467C1.06 4.85.539 4.043.539 3.127.539 1.573 1.866.64 3.814.64c.588 0 1.177.078 1.53.156.285.062.403.062.52.062.118 0 .152.015.152.092 0 .063-.068.498-.068 1.399 0 .201-.016.295-.117.295-.1 0-.118-.062-.135-.171a2.362 2.362 0 0 0-.218-.652c-.1-.156-.588-.653-1.915-.653-1.076 0-1.966.497-1.966 1.43 0 .838.454 1.32 1.915 2.235l.42.265c1.798 1.134 2.42 2.05 2.42 3.184 0 .776-.32 1.615-1.378 2.252-.622.373-1.546.465-2.352.465-.689 0-1.546-.092-2.15-.356" fill="#878787" mask="url(#f)"/></g><path d="M112.643 54.23c0 1.25 0 2.274.057 2.808.043.382.1.626.486.687.17.03.457.061.57.061.087 0 .101.06.101.107 0 .06-.057.107-.2.107-.685 0-1.486-.046-1.557-.046-.057 0-.929.046-1.3.046-.143 0-.2-.03-.2-.107 0-.046.028-.092.1-.092.114 0 .257-.03.371-.06.258-.062.33-.321.372-.703.057-.534.057-1.558.057-2.809v-5.45l-1.815.03c-.785.015-1.085.106-1.27.412-.144.229-.158.32-.2.412-.029.107-.072.123-.129.123-.029 0-.086-.03-.086-.107 0-.138.257-1.298.271-1.405.029-.076.086-.244.129-.244.086 0 .214.107.558.153.357.045.842.06.985.06h4.743c.414 0 .7-.03.9-.06.185-.032.3-.061.357-.061.057 0 .057.076.057.152 0 .397-.043 1.328-.043 1.481 0 .107-.057.169-.114.169s-.086-.047-.1-.23l-.014-.137c-.043-.398-.315-.687-1.514-.718l-1.572-.03v5.45zM124.994 53.873c.058 0 .058-.03.043-.092l-1.262-3.535c-.073-.197-.145-.197-.219 0l-1.189 3.535c-.014.061 0 .092.044.092h2.583zm-1.422-5.373c.16-.425.217-.5.304-.5.13 0 .174.181.305.47.233.546 2.279 5.873 3.063 7.831.464 1.153.812 1.32 1.088 1.411.188.061.378.076.508.076.072 0 .16.03.16.106s-.145.106-.29.106c-.19 0-1.132 0-2.018-.03-.247-.016-.45-.016-.45-.09 0-.061.03-.061.088-.092.072-.03.203-.137.115-.35L125.3 54.48c-.029-.061-.044-.076-.117-.076h-2.946c-.058 0-.102.03-.13.106l-.726 2.064c-.116.318-.19.637-.19.865 0 .258.22.349.437.349h.115c.102 0 .132.046.132.106 0 .076-.072.106-.19.106-.304 0-1.001-.046-1.146-.046-.13 0-.77.046-1.291.046-.16 0-.247-.03-.247-.106 0-.06.058-.106.115-.106.088 0 .277-.015.378-.03.58-.077.827-.532 1.074-1.184l3.005-8.074zM135.643 54.23c0 1.25 0 2.274.058 2.808.042.382.1.626.485.687.171.03.457.061.571.061.086 0 .1.06.1.107 0 .06-.057.107-.2.107-.686 0-1.486-.046-1.556-.046-.059 0-.93.046-1.302.046-.142 0-.2-.03-.2-.107 0-.046.03-.092.1-.092.116 0 .258-.03.372-.06.258-.062.328-.321.371-.703.057-.534.057-1.558.057-2.809v-5.45l-1.813.03c-.786.015-1.086.106-1.272.412-.143.229-.157.32-.2.412-.029.107-.072.123-.129.123-.028 0-.085-.03-.085-.107 0-.138.257-1.298.27-1.405.03-.076.087-.244.13-.244.085 0 .214.107.557.153.357.045.843.06.986.06h4.743c.414 0 .7-.03.9-.06.186-.032.3-.061.357-.061.057 0 .057.076.057.152 0 .397-.042 1.328-.042 1.481 0 .107-.058.169-.115.169s-.085-.047-.1-.23l-.014-.137c-.043-.398-.314-.687-1.515-.718l-1.57-.03v5.45zM145.303 51.88c0-2.024 0-2.392-.035-2.807-.034-.444-.122-.659-.625-.72a5.546 5.546 0 0 0-.521-.031c-.051 0-.122-.061-.122-.107 0-.076.07-.108.243-.108.695 0 1.685.032 1.772.032.105 0 3.3.014 3.648 0 .296-.016.572-.062.694-.078.07-.015.139-.061.209-.061.053 0 .07.061.07.123 0 .092-.088.245-.122.613-.018.123-.052.706-.088.859-.016.062-.07.139-.138.139-.086 0-.122-.062-.122-.17 0-.092-.017-.306-.086-.46-.105-.215-.262-.307-1.095-.399-.26-.03-2.031-.045-2.205-.045-.07 0-.088.045-.088.137v3.544c0 .092 0 .138.088.138.191 0 2.205 0 2.552-.031.365-.03.591-.047.748-.184.103-.092.173-.169.225-.169.052 0 .087.03.087.108 0 .076-.087.29-.121.72-.036.261-.07.752-.07.844 0 .107-.035.245-.14.245-.069 0-.102-.045-.102-.123 0-.122 0-.26-.071-.429-.052-.183-.191-.337-.782-.399-.416-.046-2.049-.061-2.31-.061-.087 0-.104.045-.104.091v1.09c0 .445-.017 1.963 0 2.224.036.874.313 1.042 1.825 1.042.398 0 1.128 0 1.528-.137.4-.153.608-.385.695-.905.034-.153.069-.2.156-.2s.104.107.104.2c0 .091-.122.98-.21 1.257-.103.338-.259.338-.85.338-1.146 0-2.032-.031-2.657-.046-.643-.031-1.041-.031-1.268-.031-.035 0-.33 0-.66.016-.295.015-.642.03-.885.03-.156 0-.244-.03-.244-.108 0-.046.036-.107.122-.107.138 0 .33-.046.469-.06.295-.047.33-.308.4-.69.086-.538.086-1.566.086-2.823V51.88z" fill="#878787"/></g></svg>
