<svg id="Layer_1" data-name="Layer 1" xmlns="http://www.w3.org/2000/svg" xmlns:xlink="http://www.w3.org/1999/xlink" viewBox="0 0 1080 1080">
  <defs>
    <style>
      .cls-1 {
        fill: #122433;
      }

      .cls-2 {
        fill: #eceade;
      }

      .cls-3 {
        fill: url(#New_Gradient_Swatch_2);
      }

      .cls-4 {
        fill: url(#New_Gradient_Swatch_2-2);
      }

      .cls-5 {
        fill: url(#New_Gradient_Swatch_2-3);
      }

      .cls-6 {
        fill: url(#New_Gradient_Swatch_2-4);
      }

      .cls-7 {
        fill: url(#New_Gradient_Swatch_2-5);
      }

      .cls-8 {
        fill: url(#New_Gradient_Swatch_2-6);
      }

      .cls-9 {
        fill: url(#New_Gradient_Swatch_2-7);
      }

      .cls-10 {
        fill: url(#New_Gradient_Swatch_2-8);
      }

      .cls-11 {
        fill: url(#New_Gradient_Swatch_2-9);
      }

      .cls-12 {
        fill: url(#New_Gradient_Swatch_2-10);
      }

      .cls-13 {
        fill: url(#New_Gradient_Swatch_2-11);
      }

      .cls-14 {
        fill: url(#New_Gradient_Swatch_2-12);
      }

      .cls-15 {
        fill: url(#New_Gradient_Swatch_2-13);
      }

      .cls-16 {
        fill: url(#New_Gradient_Swatch_2-14);
      }

      .cls-17 {
        fill: url(#New_Gradient_Swatch_2-15);
      }

      .cls-18 {
        fill: url(#New_Gradient_Swatch_2-16);
      }

      .cls-19 {
        fill: url(#New_Gradient_Swatch_2-17);
      }

      .cls-20 {
        fill: url(#New_Gradient_Swatch_2-18);
      }

      .cls-21 {
        fill: url(#New_Gradient_Swatch_2-19);
      }

      .cls-22 {
        fill: url(#New_Gradient_Swatch_2-20);
      }

      .cls-23 {
        fill: url(#New_Gradient_Swatch_2-21);
      }

      .cls-24 {
        fill: url(#New_Gradient_Swatch_2-22);
      }

      .cls-25 {
        fill: url(#New_Gradient_Swatch_2-23);
      }

      .cls-26 {
        fill: url(#New_Gradient_Swatch_2-24);
      }

      .cls-27 {
        fill: url(#New_Gradient_Swatch_2-25);
      }

      .cls-28 {
        fill: url(#New_Gradient_Swatch_2-26);
      }

      .cls-29 {
        fill: url(#New_Gradient_Swatch_2-27);
      }

      .cls-30 {
        fill: url(#New_Gradient_Swatch_2-28);
      }

      .cls-31 {
        fill: url(#New_Gradient_Swatch_2-29);
      }

      .cls-32 {
        fill: url(#New_Gradient_Swatch_2-30);
      }

      .cls-33 {
        fill: url(#New_Gradient_Swatch_2-31);
      }

      .cls-34 {
        fill: url(#New_Gradient_Swatch_2-32);
      }

      .cls-35 {
        fill: url(#New_Gradient_Swatch_2-33);
      }

      .cls-36 {
        fill: url(#New_Gradient_Swatch_2-34);
      }
    </style>
    <linearGradient id="New_Gradient_Swatch_2" data-name="New Gradient Swatch 2" x1="424.92" y1="112.74" x2="477.71" y2="112.74" gradientUnits="userSpaceOnUse">
      <stop offset="0" stop-color="#ab8f6f"/>
      <stop offset="0.11" stop-color="#b09372"/>
      <stop offset="0.24" stop-color="#bda07d"/>
      <stop offset="0.37" stop-color="#d3b58d"/>
      <stop offset="0.51" stop-color="#f2d1a5"/>
      <stop offset="0.55" stop-color="#ffddae"/>
      <stop offset="1" stop-color="#b28024"/>
    </linearGradient>
    <linearGradient id="New_Gradient_Swatch_2-2" x1="435.17" y1="76.99" x2="480.89" y2="76.99" xlink:href="#New_Gradient_Swatch_2"/>
    <linearGradient id="New_Gradient_Swatch_2-3" x1="399.26" y1="107.12" x2="425.1" y2="107.12" xlink:href="#New_Gradient_Swatch_2"/>
    <linearGradient id="New_Gradient_Swatch_2-4" x1="409.2" y1="85.8" x2="446.08" y2="85.8" xlink:href="#New_Gradient_Swatch_2"/>
    <linearGradient id="New_Gradient_Swatch_2-5" x1="430.15" y1="91.73" x2="441.5" y2="91.73" xlink:href="#New_Gradient_Swatch_2"/>
    <linearGradient id="New_Gradient_Swatch_2-6" x1="459.73" y1="83.06" x2="465.16" y2="83.06" xlink:href="#New_Gradient_Swatch_2"/>
    <linearGradient id="New_Gradient_Swatch_2-7" x1="449.02" y1="87.03" x2="453.76" y2="87.03" xlink:href="#New_Gradient_Swatch_2"/>
    <linearGradient id="New_Gradient_Swatch_2-8" x1="424.73" y1="99.08" x2="431.67" y2="99.08" xlink:href="#New_Gradient_Swatch_2"/>
    <linearGradient id="New_Gradient_Swatch_2-9" x1="562.53" y1="244.31" x2="621.94" y2="244.31" xlink:href="#New_Gradient_Swatch_2"/>
    <linearGradient id="New_Gradient_Swatch_2-10" x1="613.4" y1="212.6" x2="641.87" y2="212.6" xlink:href="#New_Gradient_Swatch_2"/>
    <linearGradient id="New_Gradient_Swatch_2-11" x1="543.19" y1="276.28" x2="571.66" y2="276.28" xlink:href="#New_Gradient_Swatch_2"/>
    <linearGradient id="New_Gradient_Swatch_2-12" x1="66.78" y1="97.42" x2="155.17" y2="97.42" xlink:href="#New_Gradient_Swatch_2"/>
    <linearGradient id="New_Gradient_Swatch_2-13" x1="99.79" y1="105.91" x2="151.49" y2="105.91" xlink:href="#New_Gradient_Swatch_2"/>
    <linearGradient id="New_Gradient_Swatch_2-14" x1="214.54" y1="252.83" x2="296.89" y2="252.83" xlink:href="#New_Gradient_Swatch_2"/>
    <linearGradient id="New_Gradient_Swatch_2-15" x1="774.88" y1="93.39" x2="863.26" y2="93.39" xlink:href="#New_Gradient_Swatch_2"/>
    <linearGradient id="New_Gradient_Swatch_2-16" x1="807.88" y1="101.88" x2="859.59" y2="101.88" xlink:href="#New_Gradient_Swatch_2"/>
    <linearGradient id="New_Gradient_Swatch_2-17" x1="927.69" y1="239.4" x2="1010.03" y2="239.4" xlink:href="#New_Gradient_Swatch_2"/>
    <linearGradient id="New_Gradient_Swatch_2-18" x1="423.3" y1="866.29" x2="476.09" y2="866.29" xlink:href="#New_Gradient_Swatch_2"/>
    <linearGradient id="New_Gradient_Swatch_2-19" x1="433.55" y1="830.54" x2="479.27" y2="830.54" xlink:href="#New_Gradient_Swatch_2"/>
    <linearGradient id="New_Gradient_Swatch_2-20" x1="397.64" y1="860.67" x2="423.48" y2="860.67" xlink:href="#New_Gradient_Swatch_2"/>
    <linearGradient id="New_Gradient_Swatch_2-21" x1="407.58" y1="839.36" x2="444.46" y2="839.36" xlink:href="#New_Gradient_Swatch_2"/>
    <linearGradient id="New_Gradient_Swatch_2-22" x1="428.53" y1="845.29" x2="439.88" y2="845.29" xlink:href="#New_Gradient_Swatch_2"/>
    <linearGradient id="New_Gradient_Swatch_2-23" x1="458.12" y1="836.61" x2="463.54" y2="836.61" xlink:href="#New_Gradient_Swatch_2"/>
    <linearGradient id="New_Gradient_Swatch_2-24" x1="447.4" y1="840.59" x2="452.15" y2="840.59" xlink:href="#New_Gradient_Swatch_2"/>
    <linearGradient id="New_Gradient_Swatch_2-25" x1="423.12" y1="852.63" x2="430.06" y2="852.63" xlink:href="#New_Gradient_Swatch_2"/>
    <linearGradient id="New_Gradient_Swatch_2-26" x1="560.91" y1="997.86" x2="620.33" y2="997.86" xlink:href="#New_Gradient_Swatch_2"/>
    <linearGradient id="New_Gradient_Swatch_2-27" x1="611.79" y1="966.15" x2="640.26" y2="966.15" xlink:href="#New_Gradient_Swatch_2"/>
    <linearGradient id="New_Gradient_Swatch_2-28" x1="541.58" y1="1029.84" x2="570.05" y2="1029.84" xlink:href="#New_Gradient_Swatch_2"/>
    <linearGradient id="New_Gradient_Swatch_2-29" x1="65.17" y1="850.98" x2="153.55" y2="850.98" xlink:href="#New_Gradient_Swatch_2"/>
    <linearGradient id="New_Gradient_Swatch_2-30" x1="98.17" y1="859.46" x2="149.88" y2="859.46" xlink:href="#New_Gradient_Swatch_2"/>
    <linearGradient id="New_Gradient_Swatch_2-31" x1="212.93" y1="1006.39" x2="295.27" y2="1006.39" xlink:href="#New_Gradient_Swatch_2"/>
    <linearGradient id="New_Gradient_Swatch_2-32" x1="773.26" y1="846.95" x2="861.65" y2="846.95" xlink:href="#New_Gradient_Swatch_2"/>
    <linearGradient id="New_Gradient_Swatch_2-33" x1="806.26" y1="855.43" x2="857.97" y2="855.43" xlink:href="#New_Gradient_Swatch_2"/>
    <linearGradient id="New_Gradient_Swatch_2-34" x1="926.07" y1="992.96" x2="1008.42" y2="992.96" xlink:href="#New_Gradient_Swatch_2"/>
  </defs>
  <rect class="cls-1" x="1.58" width="1080" height="1080"/>
  <path class="cls-2" d="M914.16,577.27C889,560.41,860.94,555.29,831,561c-14.3,2.72-27.47,8.67-40.74,14.29-26.41,11.2-51,25.88-75.62,40.38-19.09,11.23-38.24,22.31-58.59,31.21-6.32,2.76-12.61,4.58-19.64,4.19s-14.13,0-21.2,0c-.82,0-1.64,0-2.64-.08,0-6.09.09-12,.14-18.64a32,32,0,0,1-3.8.48q-125.33.54-250.65,1c1.88,2.22,2.68,5.42,2,9.32q120.07-.5,240.14-1c.83,0,1.66,0,2.67.05,0,20.94.06,41.63.08,63a19.17,19.17,0,0,0-3-.44q-118.64.5-237.25,1c-7.5,0-14.89-.12-21.74-4a31.56,31.56,0,0,1-15.46-33.83,30.66,30.66,0,0,1,.91-3.32A13.27,13.27,0,0,0,325,665c-2.64.91-5.36-1-6.15-3.49a4.37,4.37,0,0,1,.06-2.86,39.83,39.83,0,0,0-3.08,14c-.43,11.83,3.38,22,11.91,30.46a39.75,39.75,0,0,0,29.42,12l245.39-1c3.44,0,6.88.11,10.51.17-.06-6.4-.12-12.35-.18-18.51l17.73-.06c16.76-.06,16.78-.1,32.18,6.77,18.79,8.39,36.53,18.79,54.36,29,29,16.59,57.91,33.21,89.4,44.81,14,5.14,28.17,9.44,43.05,9.67,38.8.6,70.16-15.06,93.76-45.6,15.2-19.67,22.71-42.4,22.54-67.32C965.6,632.07,948,599.94,914.16,577.27ZM612.7,660.47c.79,0,1.57-.13,2.36-.13,10.1,0,20.2,0,30.3-.11a13.78,13.78,0,0,0,4.61-.9c22-8.27,42.39-19.74,62.59-31.57,21.14-12.38,42-25.36,64.14-35.8,13.94-6.56,28.1-12.82,42.59-18,25.85-9.22,51.63-7.67,76.57,3.68,20.41,9.28,36.13,24,47.25,43.48,5.48,9.6,9.55,20.47,10.93,28.66-1.66-1.19-3.07-2.24-4.53-3.23-15-10.15-31.87-15.15-49.38-18.48-32.47-6.17-64.88-5-97.35.5-32.82,5.56-65.14,13.36-97.54,20.86C686.6,653.75,667.77,657.27,649,661c-3.42.67-7,.48-10.55.52-7.83.09-15.65.06-23.48.07-.75,0-1.49-.09-2.24-.13C612.71,661.1,612.7,660.79,612.7,660.47ZM632,670.91a137.24,137.24,0,0,0,35.75-3.67c28.68-6.4,57.31-13,86-19.4,25.34-5.68,50.75-11,76.63-13.51a236.86,236.86,0,0,1,82.33,6.19c12.17,3.14,23.78,7.7,33.95,15.32a26.43,26.43,0,0,1,8.84,10.82c2.74,6.58.37,12.16-4,17.09-6.55,7.36-15.13,11.62-24.06,15.17-19.09,7.59-39.1,10.74-59.48,12.18-27.26,1.93-54.1-1.51-80.7-6.74-28.08-5.52-56-12.08-84-17.91-18.08-3.77-36.26-7.05-54.4-10.52a20.59,20.59,0,0,0-3.77-.21l-32.23.23c0-1.86-.08-3.36-.12-5.2C619.23,670.79,625.63,670.64,632,670.91Zm321.74,25.84a104.43,104.43,0,0,1-99.39,79.9c-15.76.26-30.67-3.91-45.34-9.42-34.88-13.12-66.82-31.93-98.91-50.5-19.33-11.18-39-21.66-60-29.5a14.43,14.43,0,0,0-4.88-.88c-10.09-.06-20.19,0-30.29,0-.73,0-1.46,0-2.2-.08l.07-.9c.73,0,1.45-.12,2.18-.12,10.18-.07,20.37-.45,30.54-.07A102.14,102.14,0,0,1,663,687.77c27.26,5.82,54.46,11.86,81.7,17.74,27.85,6,55.76,11.79,84.17,14.38,33.16,3,65.82.41,97.51-10.55a87,87,0,0,0,27.85-15.21C954,695.23,953.94,696,953.76,696.75Z"/>
  <path class="cls-2" d="M331.35,677.39c-61,0-98.48-85.86-124.38-139.47l-11.48,15.56v16c0,17.5,4.8,28.08,4.8,28.08a185,185,0,0,0-23.7-1.32,187.4,187.4,0,0,0-23.71,1.32s4.7-10.37,4.7-27.57V462.74a79.88,79.88,0,0,0-2.4-20.25c-17,.61-33.63,4.07-35.09,21.06L120,466.4c0,13.53,8.88,25.43,20.79,25.43,3.34,0,6.37-1.12,8.14-3.56a31.08,31.08,0,0,1,.84,6.62c0,14.65-12.95,22.07-26.11,22.07l-3.45-.2c-21-2.34-26.94-17.3-26.94-31.44a42.86,42.86,0,0,1,5-20.55c14.31-26.35,36.66-28.38,61.41-28.38l15.77.1a186.89,186.89,0,0,0,24.85-1.42s-4.8,10.68-4.8,28.18v71.41L259.4,448.9l1.25-2a12.65,12.65,0,0,0,1.46-5.5,6.72,6.72,0,0,0-2.08-5.08l13.15.1,8.67-.1a137.07,137.07,0,0,0-9.19,12.82l-42.19,57.17c19.84,39.47,76.24,156.66,103.7,163.17a25.18,25.18,0,0,0,6.06.72c12.11,0,21.2-8.85,21.2-19.23A19.66,19.66,0,0,0,358,640.05c-3.76-5.69-10.86-8.44-17.23-8.44-5.43,0-10.23,2-11.9,6.21A22.32,22.32,0,0,1,325.92,627c0-15.16,16.29-24.62,28.51-24.62,16,0,29.24,14,29.24,31,0,11.5-6.05,24.21-21.51,34.9C352.45,675,343.15,677.08,331.35,677.39Z"/>
  <path class="cls-2" d="M356.63,576.58V527.74c0-18.71-5.43-26.75-11.7-26.75-7.73,0-16.71,12.31-18.28,32v36.32c0,16.79,5.12,26.86,5.12,26.86l-5.74-.1c-24.13,0-34.57,4.78-42.19,9,2.19-8.14,4.8-23.09,4.8-33v-8.65c0-12.81.31-22.07.31-36.82,0-18.31-8-23.3-8-23.3,22.77,0,42.82-17,45.95-25,0,12.61,0,24.11-.1,35.4,3.55-13.13,11.49-28.08,29.87-28.08l2.82-.1c32.58,0,32.58,32.45,32.58,32.45v56.36c.62,17.09,8,21.77,8,21.77-22.77,0-33.42,3.46-43.34,8.95Z"/>
  <path class="cls-2" d="M450.51,596.51c-23.81,0-46.37-16.37-46.68-51.06v-.31c0-21.26,10.13-42,27.57-52.49a52.49,52.49,0,0,1,25.48-6.92h.73c23.08,0,34.67,14.75,34.67,29.71,0,15.15-11.9,30.41-36,30.41a69.38,69.38,0,0,1-13.78-1.52c3.34,9.76,10.34,17.9,22.87,20.95a33.38,33.38,0,0,0,8.46,1,37.11,37.11,0,0,0,30-15.36C498.44,580.64,473.9,596.51,450.51,596.51Zm-8.77-54.63c18.69-2.64,25.37-18,25.37-31,0-10.18-4.07-18.92-9.71-18.92-4,0-8.77,4.57-13.36,16.58a59.67,59.67,0,0,0-3.87,21A48.41,48.41,0,0,0,441.74,541.88Z"/>
  <path class="cls-2" d="M572.17,569.86c-8.56,11.7-22.55,26.35-39,26.35-15.56,0-24.65-10.68-24.65-23.09,0-11.91,8.46-25.23,27.57-32,15-5.29,32.48-8.85,36.24-22.48-1-18.62-11.18-26.45-19.84-26.45a11.15,11.15,0,0,0-2.62.2c-6.37,1.12-9.08,6.92-9.08,13.43,0,8.24,4.39,17.6,11,19.84a16.18,16.18,0,0,1-31.53-5.09c0-21.46,23.28-34.89,45.53-34.89,17.23,0,33.83,8,38.74,26.65,1.57,6,2,12.82,2,20,0,8.14-.53,16.79-.53,25.23,0,14.35,1.47,28.28,9.61,38.56a77.18,77.18,0,0,0-16.71-1.83c-19.94,0-32.68,7.83-32.68,7.83C569.56,594.79,571.34,582.58,572.17,569.86Zm.63-13.73.1-8.24c0-8.65-.2-16.18-.41-20.35-8.46,11.9-25,18.11-27.78,26.65a15.78,15.78,0,0,0-.63,4.38c0,7.73,5.64,15,12.53,15C562,573.62,568.2,569.05,572.8,556.13Z"/>
  <path class="cls-2" d="M673.37,596.21c-36.87,0-53.58-27.06-53.58-54.53l.11-3.66c1.46-24.62,15.77-47.71,42.29-51.88a42.75,42.75,0,0,1,6.27-.51c9.29,0,18.17,3.36,24.33,11.49V485.63c0-19-8-24.11-8-24.11,22.77,0,42.82-17.6,46-26V559.08c0,17.5,5.12,27.87,5.12,27.87h-3.14c-25,0-37.38,9.16-58.89,9.26Zm19.21-9c0-28,.11-53.62.21-81.59-3.65-4.27-7.31-6.1-10.65-6.1-11.91,0-20.89,23.7-20.89,46.49,0,21.05,7.73,41.4,27.89,41.4Z"/>
  <path class="cls-2" d="M851.23,541.81h0l-.65-88.1c0-16.13,4.7-26,4.7-26a195.45,195.45,0,0,1-24.85,1.34l-15.77-.1c-24.64,0-47,1.91-61.4,26.63a37.67,37.67,0,0,0-4.91,19.08c0,13.36,5.64,27.48,26.94,29.68l3.45.19c13,0,26-7,26-20.71a26.81,26.81,0,0,0-.84-6.2c-1.77,2.29-4.7,3.34-8,3.34a19.57,19.57,0,0,1-4.07-.48C780.51,478.14,775,467.35,775,457c.73-17.75,14.83-21.56,35.29-22.23a75.58,75.58,0,0,1,2.3,19L811.31,544c0-.17.05-.32.07-.47,0,.65-.07,1.4-.07,2.24,6.27-1,7.89-10,39.06-3.8Z"/>
  <path class="cls-2" d="M919.82,550.58A45.69,45.69,0,0,1,880.45,525c-4.28-8.65-6.58-19.54-6.58-32.35,0-15.47.21-30.83.21-46.39H860.82V440c26.53,0,46.37-24.62,51.07-40.28V440h23.7v6.21h-23.7v57.88c0,6.11.94,33.17,10.75,33.17h.63c3.76-.41,5.53-5.7,5.53-10.58,0-3.36-.83-6.51-2.5-7.84a12.77,12.77,0,0,1,6.37-1.52c7.41,0,15,5.69,15,13.93a20.25,20.25,0,0,1-.21,2.45c-2,11.9-14.73,16.88-26.63,16.88Z"/>
  <g>
    <path class="cls-3" d="M477.71,116.76c-.91.36-1.81.7-2.69,1.08-2.61,1.1-5.23,2.21-7.84,3.35s-5,2.25-7.56,3.33c-2.71,1.15-5.43,2.3-8.18,3.34a42.25,42.25,0,0,1-14,3.16,37.46,37.46,0,0,1-8.49-.79,87.49,87.49,0,0,0-2.63-19.45l.16-.06a4.61,4.61,0,0,1,.29.43,30.58,30.58,0,0,1,2.52,7.62c.89,4.69.84,4.7.78,10.57,1.14,0,2.28.06,3.41,0a44.24,44.24,0,0,0,10.65-1.76,85,85,0,0,0,12-4.47,112.53,112.53,0,0,1,14.62-5.42c1.7-.49,3.42-.9,5.13-1.34l.41-.13a28.74,28.74,0,0,1-8.76-20.46c-.65.32-1.23.6-1.79.89-3.93,2-7.84,4.14-11.79,6.13A66.38,66.38,0,0,1,441,108a30.88,30.88,0,0,1-15,.45,4,4,0,0,1-1.09-.44,3.78,3.78,0,0,1,.47-.06c1.87,0,3.73,0,5.6,0a36.86,36.86,0,0,0,12.37-2.67c3.37-1.34,6.55-3.09,9.82-4.64,2.85-1.36,5.75-2.65,8.66-3.87,2-.82,4-1.48,6-2.2l.42-.14A74.3,74.3,0,0,0,477.71,116.76Z"/>
    <path class="cls-4" d="M435.17,76.39l1-.46c2.43-1.05,4.91-2,7.3-3.15a52.34,52.34,0,0,0,9-6.09,45.48,45.48,0,0,1,7.29-4.77,17.54,17.54,0,0,1,8.94-2.09A12,12,0,0,1,479.5,67a14.51,14.51,0,0,1,.17,12,20.77,20.77,0,0,1-7.57,9.31,12,12,0,0,0-3.48,3.33,18.88,18.88,0,0,0-1,2,2.36,2.36,0,0,0-.1.46l-.24-.07a6.87,6.87,0,0,1-.08-.78,6.78,6.78,0,0,1,2-4.49c1.07-1.12,2.25-2.14,3.35-3.24a18.64,18.64,0,0,0,5.14-8.42,12,12,0,0,0-1.44-10.24,9.57,9.57,0,0,0-9.06-4.31,17.67,17.67,0,0,0-8.47,2.9c-2.58,1.61-5.08,3.34-7.6,5a36.39,36.39,0,0,1-11.12,5.26c-1.43.38-2.92.52-4.38.76a2.05,2.05,0,0,1-.49-.06Z"/>
    <path class="cls-5" d="M424.82,101.77a3.42,3.42,0,0,1,.18.6,13,13,0,0,1-.8,6.15,18,18,0,0,1-7.36,9.53,12.19,12.19,0,0,1-9.71,2,9.51,9.51,0,0,1-6.91-5.82,13.07,13.07,0,0,1,.06-10,22.08,22.08,0,0,1,6.58-9.2,12.62,12.62,0,0,1,1.5-1,1.71,1.71,0,0,1,.38-.13l.11.12c-.31.44-.59.9-.92,1.32a35.52,35.52,0,0,0-3.89,5.89,17.4,17.4,0,0,0-2.16,7.13,9.58,9.58,0,0,0,1.28,5.64,7.3,7.3,0,0,0,6.85,3.55,11.21,11.21,0,0,0,6.2-2.17A19.1,19.1,0,0,0,423.68,105c.29-.91.53-1.84.8-2.75a3.22,3.22,0,0,1,.23-.5Z"/>
    <path class="cls-6" d="M446.08,70.65a5.57,5.57,0,0,1-.76.32c-1.82.48-3.64,1-5.47,1.41a79.38,79.38,0,0,0-14.12,4.56,28.3,28.3,0,0,0-10.49,7.86,18.5,18.5,0,0,0-4.13,14.47c.05.45.11.9.15,1.36,0,.21,0,.42,0,.63l-.14.06a7.36,7.36,0,0,1-.47-.63,11.54,11.54,0,0,1-1.29-4.24A17.76,17.76,0,0,1,412.56,84a25.64,25.64,0,0,1,8.76-7.9,41,41,0,0,1,10.35-4,56.87,56.87,0,0,1,11.67-1.77c.69,0,1.38,0,2.07,0a3.92,3.92,0,0,1,.66.15Z"/>
    <path class="cls-7" d="M440.8,93.81a14.51,14.51,0,0,1,.66,5.27,4.48,4.48,0,0,1-.29,1.24c-.12.35-.35.36-.56.05a3.53,3.53,0,0,1-.38-.75c-.65-1.69-1.24-3.41-2-5.07a28.81,28.81,0,0,0-5.42-8.2c-.79-.87-1.6-1.72-2.38-2.6a2.93,2.93,0,0,1-.33-.81c.29,0,.63-.13.87,0a15.65,15.65,0,0,1,9.05,9C440.33,92.57,440.56,93.19,440.8,93.81Z"/>
    <path class="cls-8" d="M460.41,91.19a21,21,0,0,1-.14-10,18.09,18.09,0,0,1,2.91-6.81,12,12,0,0,1,1.37-1.48c.11-.1.32-.1.48-.15.05.18.16.37.12.53-.16.76-.34,1.52-.57,2.26a43.14,43.14,0,0,0-2.06,9.32c-.18,2.27-.2,4.57-.3,6.85a12.27,12.27,0,0,1-.13,1.36.51.51,0,0,1-.26.35.47.47,0,0,1-.39-.22C461.08,92.52,460.75,91.85,460.41,91.19Z"/>
    <path class="cls-9" d="M449.94,91.48a19.85,19.85,0,0,1,.24-12.7,11.12,11.12,0,0,1,.93-1.69c.09-.13.31-.17.47-.26.08.16.22.31.22.46,0,1.11,0,2.23,0,3.34a41.8,41.8,0,0,0,1.49,13.54,21,21,0,0,1,.5,2.19,2.65,2.65,0,0,1-.12.87,3.26,3.26,0,0,1-.74-.39,10.58,10.58,0,0,1-2.12-3.27C450.45,92.86,450.19,92.12,449.94,91.48Z"/>
    <path class="cls-10" d="M431.24,100a9.55,9.55,0,0,1,.41,3.36,3.68,3.68,0,0,1-.23,1c-.2.54-.54.59-.89.12a6.07,6.07,0,0,1-.69-1.18,52.36,52.36,0,0,0-4.68-8.37,3.77,3.77,0,0,1-.39-.84c-.12-.39.05-.64.45-.59a3.38,3.38,0,0,1,1.12.34,10.09,10.09,0,0,1,4.23,4.6C430.82,98.88,431,99.42,431.24,100Z"/>
  </g>
  <g>
    <path class="cls-11" d="M610.68,216a4.63,4.63,0,0,1,3.57,1.48c2.18,2.33,4.36,4.66,6.5,7a4.53,4.53,0,0,1-.37,6.49q-7.49,6.94-15,13.87l-17.87,16.51-10.69,9.85a4.54,4.54,0,0,1-6.72-.26q-3.17-3.37-6.27-6.79a4.53,4.53,0,0,1,.29-6.65c3.9-3.63,7.83-7.24,11.74-10.86l16.4-15.14,15.45-14.27A4.51,4.51,0,0,1,610.68,216Zm-37.27,54.78a3.1,3.1,0,0,0,2.21-.88l17-15.73,26.48-24.47a2.74,2.74,0,0,0,.21-4q-3.15-3.47-6.34-6.88a2.76,2.76,0,0,0-4.16-.12l-6.08,5.62-17.86,16.51q-9.79,9.06-19.62,18.11a2.72,2.72,0,0,0-.2,4c2.15,2.38,4.34,4.73,6.52,7.08A2.52,2.52,0,0,0,573.41,270.79Z"/>
    <path class="cls-12" d="M641.87,205.49a7.13,7.13,0,0,1-2.44,5.53,73.79,73.79,0,0,1-8.38,6.35c-.62.39-1.33.62-2,1a10.42,10.42,0,0,0-3.65,2.87.44.44,0,0,0,.05.69,8.35,8.35,0,0,1,.8.88,2.22,2.22,0,0,1-3.27,3c-.62-.62-1.21-1.28-1.81-1.93l-7.14-7.75a2.2,2.2,0,0,1,.84-3.65,2.17,2.17,0,0,1,2.45.64c.79.78.88.83,1.76.14a12.58,12.58,0,0,0,3-3.37,33.33,33.33,0,0,1,3.36-4.34q2.14-2.46,4.48-4.76a7,7,0,0,1,11.61,3.13A14.88,14.88,0,0,1,641.87,205.49Zm-17.93,14.7a12.37,12.37,0,0,1,4.06-3.36c.51-.29,1.12-.41,1.61-.72a36.51,36.51,0,0,0,3.14-2.1c2-1.51,3.94-3,5.8-4.67a5,5,0,0,0,1.1-5.58,5.16,5.16,0,0,0-8.49-1.66c-1.39,1.38-2.73,2.83-4,4.29-1.06,1.18-2,2.42-3,3.67-.49.63-.79,1.4-1.28,2a11.58,11.58,0,0,1-3.49,3.11Zm1.15,4c-.17-.21-.29-.41-.44-.57l-7.59-8.19c-.37-.4-.7-.83-1.09-1.2-.12-.11-.4,0-.61-.06a3.24,3.24,0,0,0,0,.62c0,.11.15.19.24.28l7.47,8.1c.39.42.76.85,1.18,1.25a.72.72,0,0,0,.52.14C624.86,224.57,625,224.38,625.09,224.22Z"/>
    <path class="cls-13" d="M543.19,283.16a7.09,7.09,0,0,1,2.7-5.54,70.25,70.25,0,0,1,8.67-6.5,27,27,0,0,0,2.47-1.39,18.43,18.43,0,0,0,2.2-2.13c.35-.36.31-.71-.07-1.11a3.67,3.67,0,0,1-.84-1.4,2.07,2.07,0,0,1,1.16-2.42,2.14,2.14,0,0,1,2.65.5q3.11,3.34,6.2,6.71c.95,1,1.91,2.05,2.84,3.11a2.19,2.19,0,0,1,.08,2.66,2.23,2.23,0,0,1-2.55.81,5.35,5.35,0,0,1-1.47-1.22c-.38-.44-.68-.48-1.13-.14a11.56,11.56,0,0,0-3.08,3.62,18.76,18.76,0,0,1-2.24,3.15c-1.86,2.13-3.74,4.25-5.73,6.24a6.52,6.52,0,0,1-7,1.67,6.73,6.73,0,0,1-4.74-5.39C543.25,284,543.24,283.57,543.19,283.16Zm17.71-14.72a12.76,12.76,0,0,1-1,1.21,18.64,18.64,0,0,1-3.94,2.86,42.28,42.28,0,0,0-5.34,3.64,39.75,39.75,0,0,0-4.06,3.38,5.16,5.16,0,1,0,7.31,7.28c2.89-3,5.94-5.86,7.95-9.61a10.21,10.21,0,0,1,3.68-3.82Zm-.44-4.27c-.15.12-.34.21-.36.33a.69.69,0,0,0,.13.52c.46.53,1,1,1.44,1.54L569,274.5c.21.23.44.42.73.14s.11-.48-.09-.7l-8.72-9.45A2.92,2.92,0,0,0,560.46,264.17Z"/>
  </g>
  <path class="cls-14" d="M112.15,126.65a4,4,0,0,1-1.35,5.24,3.84,3.84,0,0,1-3.75.32l-27.4-11.69a4,4,0,0,1,.08-7.43l.34-.14A46.08,46.08,0,0,1,70.6,62.29l84.57,36.09C151,109.75,136.49,126.74,112.15,126.65ZM71.29,63.85a42.44,42.44,0,0,0-3.15,13.41,44.54,44.54,0,0,0,11.54,33.5,10.3,10.3,0,0,0,3.89,2.82c8.36,3.47,16.67,7.07,25,10.63.79.33,1.55.73,2.34,1.09a1.64,1.64,0,0,0,.5.09,45.53,45.53,0,0,0,9-.63,44.78,44.78,0,0,0,31.84-22.88c.5-.93.94-1.91,1.41-2.86ZM96,120.15l-13.65-5.82a2.77,2.77,0,0,0-3.77,1.41,2.81,2.81,0,0,0,1.62,3.7L107.36,131a3.36,3.36,0,0,0,1.12.28,2.76,2.76,0,0,0,1.19-5.32Z"/>
  <path class="cls-15" d="M149.8,100.26l-24.65-11,.08-.19,26.26,10.68c-1.05,1.49-2,2.91-3,4.27a56.69,56.69,0,0,1-13.36,13.14,29.67,29.67,0,0,1-11.52,5,35.84,35.84,0,0,1-20.13-1.77c-1.25-.48-2.45-1.1-3.67-1.66l.06-.15c.59.25,1.17.51,1.77.75a37.4,37.4,0,0,0,16.91,2.52,31.62,31.62,0,0,0,17.39-6.71A65.46,65.46,0,0,0,149.8,100.26Z"/>
  <path class="cls-16" d="M279,211.06a18,18,0,0,1,17.58,14.81,18.22,18.22,0,0,1-9.27,19.46q-17.83,9.72-35.69,19.39c-.53.29-1.05.6-1.59.84a14.62,14.62,0,0,0-4.4,3.3c-8,8.15-16,16.25-24,24.4a4.08,4.08,0,1,1-5.84-5.68c1.69-1.74,3.41-3.46,5.11-5.19l20.77-21.08a3,3,0,0,0,.45-.66l21-39.8a17.91,17.91,0,0,1,11.19-9.14A16.26,16.26,0,0,1,279,211.06Zm-29.73,49.49.09-.07.07-.17-.12.07-.1.1-.08.08Zm43.18-41.25-.16.08v.24a21,21,0,0,1-1.39,9.16,20.15,20.15,0,0,1-7.15,9.32c-2.88,2.06-5.8,4.07-8.7,6.09L252.3,260.07l-3.63,2.55L250,264l1.59-.84,35.07-19.05a16.4,16.4,0,0,0,3.84-2.84,16.92,16.92,0,0,0,3.57-18.91C293.64,221.32,293,220.33,292.45,219.3Zm-3.69-3.53a.54.54,0,0,0-.07-.14l-.3-.23a16.46,16.46,0,0,0-23.87,5.71q-9.4,17.69-18.71,35.44l-1.1,2.08,1.37,1.39.23-.3q12-17.63,23.92-35.24a19.82,19.82,0,0,1,10.83-7.89A20.59,20.59,0,0,1,288.76,215.77Zm2.06,2.61q-20.62,21-41.22,42.05a24,24,0,0,1,1.94-1.46q15.47-10.82,30.94-21.62a19.38,19.38,0,0,0,7-8.56A19.59,19.59,0,0,0,290.82,218.38Zm-1-1.11A19.18,19.18,0,0,0,279,218.84a17.94,17.94,0,0,0-7.38,6c-3.78,5.48-7.49,11-11.23,16.53l-12.23,18,.1.1ZM244,260c-.18.33-.38.66-.54,1a5.84,5.84,0,0,1-1.22,1.69Q231,274.1,219.67,285.58c-1,1-2,2-2.94,3a2.72,2.72,0,1,0,3.92,3.76q12.84-13.08,25.72-26.1a5.43,5.43,0,0,1,1-.73c.45-.28.92-.51,1.38-.76Z"/>
  <path class="cls-17" d="M820.24,122.62a4,4,0,0,1-1.35,5.24,3.82,3.82,0,0,1-3.74.32l-27.41-11.69a4,4,0,0,1,.08-7.43l.34-.14A46,46,0,0,1,775.69,85a45.42,45.42,0,0,1,3-26.77l84.56,36.09C859.12,105.72,844.58,122.71,820.24,122.62Zm-40.86-62.8a42.71,42.71,0,0,0-3.15,13.41,44.58,44.58,0,0,0,11.54,33.5,10.38,10.38,0,0,0,3.89,2.82c8.36,3.47,16.67,7.06,25,10.63.79.33,1.55.73,2.33,1.08a1.45,1.45,0,0,0,.51.1,45.14,45.14,0,0,0,26.57-7.69,44.24,44.24,0,0,0,14.29-15.82c.51-.94.95-1.91,1.42-2.86Zm24.68,56.3-13.65-5.82a2.77,2.77,0,0,0-3.77,1.41,2.81,2.81,0,0,0,1.62,3.7L815.45,127a3.68,3.68,0,0,0,1.13.28,2.76,2.76,0,0,0,1.18-5.32Z"/>
  <path class="cls-18" d="M857.89,96.23l-24.65-11,.08-.19,26.27,10.68c-1.05,1.49-2,2.91-3,4.27a57.27,57.27,0,0,1-13.36,13.14,29.71,29.71,0,0,1-11.53,5,36.88,36.88,0,0,1-16.29-.51,37.45,37.45,0,0,1-3.84-1.26c-1.25-.48-2.45-1.1-3.67-1.66l.06-.15c.59.25,1.18.51,1.77.75a37.57,37.57,0,0,0,16.92,2.52A31.59,31.59,0,0,0,844,111.07,65.24,65.24,0,0,0,857.89,96.23Z"/>
  <path class="cls-19" d="M992.15,197.63a18,18,0,0,1,17.58,14.81,18.24,18.24,0,0,1-9.27,19.46l-35.7,19.39c-.53.29-1,.6-1.59.84a14.58,14.58,0,0,0-4.39,3.3c-8,8.15-16,16.25-24,24.39a4.08,4.08,0,1,1-5.85-5.67c1.7-1.74,3.41-3.46,5.12-5.19l20.76-21.08a2.66,2.66,0,0,0,.45-.66l21-39.81a17.89,17.89,0,0,1,11.18-9.14A16.63,16.63,0,0,1,992.15,197.63Zm-29.73,49.49.09-.07.06-.17-.12.07-.09.1-.08.08Zm43.18-41.25-.16.08a1.92,1.92,0,0,0,0,.24,21.33,21.33,0,0,1-1.39,9.16,20.21,20.21,0,0,1-7.15,9.32c-2.88,2.06-5.8,4.07-8.7,6.09l-22.75,15.88-3.63,2.54,1.37,1.41,1.58-.84,35.07-19.05a16.48,16.48,0,0,0,3.84-2.84,16.92,16.92,0,0,0,3.57-18.91C1006.79,207.88,1006.15,206.89,1005.6,205.87Zm-3.7-3.53c0-.09,0-.13-.06-.14a3.55,3.55,0,0,0-.31-.23,16.44,16.44,0,0,0-23.87,5.71c-6.27,11.79-12.47,23.62-18.71,35.44-.36.7-.73,1.39-1.09,2.08l1.37,1.39.22-.3q12-17.62,23.93-35.24a19.77,19.77,0,0,1,10.83-7.89A20.32,20.32,0,0,1,1001.9,202.34ZM1004,205,962.74,247c.61-.52,1.27-1,1.94-1.46q15.48-10.81,31-21.62a19.71,19.71,0,0,0,8.33-19Zm-1-1.11a19.13,19.13,0,0,0-10.87,1.57,17.87,17.87,0,0,0-7.38,6c-3.79,5.48-7.5,11-11.24,16.53q-6.11,9-12.22,18l.09.09Zm-45.81,42.67c-.18.34-.38.67-.54,1a5.94,5.94,0,0,1-1.21,1.69q-11.32,11.46-22.61,22.94c-1,1-2,2-2.94,3a2.72,2.72,0,1,0,3.92,3.77q12.83-13.08,25.72-26.1a4.93,4.93,0,0,1,1-.73c.45-.28.93-.52,1.39-.77Z"/>
  <g>
    <path class="cls-20" d="M476.09,870.31c-.91.37-1.8.71-2.68,1.08-2.62,1.11-5.24,2.22-7.84,3.35s-5,2.25-7.57,3.33c-2.71,1.15-5.42,2.3-8.18,3.35a42.5,42.5,0,0,1-14,3.16,38.55,38.55,0,0,1-8.48-.79,88.77,88.77,0,0,0-2.63-19.46l.15-.06a3,3,0,0,1,.29.43,30.31,30.31,0,0,1,2.52,7.62c.89,4.69.85,4.7.79,10.57,1.13,0,2.27.06,3.41,0a44.15,44.15,0,0,0,10.64-1.75,85.94,85.94,0,0,0,12-4.47,110,110,0,0,1,14.62-5.42c1.7-.49,3.42-.9,5.13-1.35a4.15,4.15,0,0,0,.4-.13,28.71,28.71,0,0,1-8.75-20.46c-.66.33-1.23.6-1.8.9-3.93,2-7.83,4.13-11.79,6.12a65.51,65.51,0,0,1-12.93,5.21,30.84,30.84,0,0,1-15,.45,3.62,3.62,0,0,1-1.1-.44,3.93,3.93,0,0,1,.48-.06c1.86,0,3.73.06,5.59,0a36.81,36.81,0,0,0,12.37-2.67c3.38-1.33,6.55-3.08,9.82-4.64q4.29-2,8.67-3.87c1.95-.82,4-1.47,6-2.2l.42-.13A74.5,74.5,0,0,0,476.09,870.31Z"/>
    <path class="cls-21" d="M433.55,829.94l1-.46c2.44-1,4.91-2,7.3-3.15a52.36,52.36,0,0,0,9.06-6.08,44.44,44.44,0,0,1,7.29-4.78,17.58,17.58,0,0,1,8.93-2.09,12,12,0,0,1,10.75,7.21,14.52,14.52,0,0,1,.17,12,20.82,20.82,0,0,1-7.58,9.32,11.88,11.88,0,0,0-3.48,3.33,18.92,18.92,0,0,0-1,2,1.72,1.72,0,0,0-.11.46l-.24-.07a5.39,5.39,0,0,1-.07-.79,6.7,6.7,0,0,1,2-4.48c1.07-1.13,2.26-2.15,3.36-3.25a18.82,18.82,0,0,0,5.14-8.42,12,12,0,0,0-1.44-10.24,9.58,9.58,0,0,0-9.06-4.31,17.71,17.71,0,0,0-8.48,2.9c-2.58,1.61-5.08,3.35-7.59,5a36.59,36.59,0,0,1-11.13,5.27c-1.43.37-2.92.52-4.38.75a1.6,1.6,0,0,1-.48,0Z"/>
    <path class="cls-22" d="M423.21,855.33a4.14,4.14,0,0,1,.18.6,13.15,13.15,0,0,1-.8,6.15,18.08,18.08,0,0,1-7.37,9.52,12.23,12.23,0,0,1-9.71,2,9.58,9.58,0,0,1-6.91-5.83,13,13,0,0,1,.07-10,21.9,21.9,0,0,1,6.58-9.2,13.83,13.83,0,0,1,1.49-1,1.63,1.63,0,0,1,.39-.13l.1.13c-.3.44-.58.9-.92,1.32a35.52,35.52,0,0,0-3.89,5.89,17.62,17.62,0,0,0-2.16,7.12,9.59,9.59,0,0,0,1.29,5.64,7.29,7.29,0,0,0,6.84,3.56,11.31,11.31,0,0,0,6.21-2.17,19.16,19.16,0,0,0,7.46-10.37c.29-.91.53-1.83.81-2.75a5.44,5.44,0,0,1,.22-.5Z"/>
    <path class="cls-23" d="M444.46,824.2a5.45,5.45,0,0,1-.75.32c-1.83.48-3.65,1-5.48,1.42a79.25,79.25,0,0,0-14.11,4.55,28.24,28.24,0,0,0-10.49,7.86,18.56,18.56,0,0,0-4.14,14.47c.06.46.11.91.15,1.36,0,.21,0,.42,0,.64l-.14,0a4.69,4.69,0,0,1-.47-.63,11.5,11.5,0,0,1-1.3-4.24A17.75,17.75,0,0,1,411,837.56a25.48,25.48,0,0,1,8.76-7.91,41.18,41.18,0,0,1,10.34-4,56.2,56.2,0,0,1,11.68-1.78c.69,0,1.38,0,2.07,0a3.61,3.61,0,0,1,.65.15Z"/>
    <path class="cls-24" d="M439.18,847.36a14.56,14.56,0,0,1,.66,5.28,4.68,4.68,0,0,1-.28,1.23c-.13.35-.36.36-.57,0a4,4,0,0,1-.37-.75c-.65-1.69-1.25-3.4-1.95-5.07a29,29,0,0,0-5.42-8.2c-.79-.87-1.61-1.72-2.38-2.6a3,3,0,0,1-.34-.81,2.34,2.34,0,0,1,.87,0,18.23,18.23,0,0,1,2.76,1.38,17.53,17.53,0,0,1,6.29,7.67C438.72,846.12,438.94,846.75,439.18,847.36Z"/>
    <path class="cls-25" d="M458.79,844.74a21.1,21.1,0,0,1-.13-10,18.27,18.27,0,0,1,2.9-6.82,12.69,12.69,0,0,1,1.37-1.47c.11-.11.32-.11.48-.15a1.29,1.29,0,0,1,.13.52c-.17.76-.34,1.52-.57,2.26a43.27,43.27,0,0,0-2.06,9.32c-.19,2.28-.2,4.57-.31,6.86a12.33,12.33,0,0,1-.13,1.35c0,.14-.15.33-.26.35a.5.5,0,0,1-.39-.21C459.46,846.07,459.13,845.4,458.79,844.74Z"/>
    <path class="cls-26" d="M448.33,845a19.75,19.75,0,0,1,.24-12.69,9.71,9.71,0,0,1,.93-1.7c.08-.13.31-.17.47-.25.07.15.22.3.22.45,0,1.12,0,2.23,0,3.35a41.22,41.22,0,0,0,1.49,13.53c.2.72.37,1.46.5,2.2a3.3,3.3,0,0,1-.12.86,2.87,2.87,0,0,1-.74-.38,10.28,10.28,0,0,1-2.12-3.28C448.83,846.41,448.58,845.67,448.33,845Z"/>
    <path class="cls-27" d="M429.62,853.51a9.3,9.3,0,0,1,.41,3.35,4.09,4.09,0,0,1-.22,1c-.21.55-.55.6-.9.12a6.49,6.49,0,0,1-.68-1.17,54.52,54.52,0,0,0-4.68-8.38,3.21,3.21,0,0,1-.39-.84c-.13-.39,0-.64.44-.59a3.37,3.37,0,0,1,1.13.34,10.11,10.11,0,0,1,4.22,4.6C429.21,852.43,429.4,853,429.62,853.51Z"/>
  </g>
  <g>
    <path class="cls-28" d="M609.06,969.57a4.62,4.62,0,0,1,3.58,1.48c2.17,2.33,4.36,4.65,6.49,7a4.53,4.53,0,0,1-.36,6.49q-7.49,7-15,13.88l-17.87,16.5c-3.56,3.29-7.11,6.58-10.69,9.85a4.53,4.53,0,0,1-6.72-.26q-3.15-3.37-6.27-6.79a4.53,4.53,0,0,1,.29-6.64c3.9-3.64,7.83-7.24,11.75-10.86l16.4-15.14,15.44-14.27A4.46,4.46,0,0,1,609.06,969.57Zm-37.27,54.77a3.14,3.14,0,0,0,2.22-.87l17-15.74,26.48-24.46a2.74,2.74,0,0,0,.21-4c-2.09-2.3-4.21-4.6-6.34-6.87a2.75,2.75,0,0,0-4.16-.12c-2,1.86-4.05,3.74-6.07,5.61L583.3,994.36q-9.81,9.06-19.62,18.11a2.74,2.74,0,0,0-.21,4c2.16,2.38,4.34,4.72,6.52,7.07A2.5,2.5,0,0,0,571.79,1024.34Z"/>
    <path class="cls-29" d="M640.26,959.05a7.13,7.13,0,0,1-2.45,5.52,73.88,73.88,0,0,1-8.38,6.36c-.61.38-1.33.62-2,1a10.45,10.45,0,0,0-3.65,2.88.45.45,0,0,0,.05.69,9.37,9.37,0,0,1,.8.87,2.22,2.22,0,0,1-3.27,3c-.62-.63-1.2-1.29-1.8-1.94-2.38-2.58-4.77-5.16-7.14-7.75a2.2,2.2,0,0,1,.84-3.65,2.16,2.16,0,0,1,2.44.65c.79.78.88.82,1.76.13a12.54,12.54,0,0,0,3-3.36,34.33,34.33,0,0,1,3.36-4.35c1.43-1.64,2.93-3.23,4.48-4.75A7,7,0,0,1,640,957.43,15.41,15.41,0,0,1,640.26,959.05Zm-17.94,14.69a12.16,12.16,0,0,1,4.07-3.35c.51-.29,1.11-.42,1.61-.72a35,35,0,0,0,3.13-2.11c2-1.51,3.94-3,5.8-4.67a5,5,0,0,0,1.11-5.57,5.16,5.16,0,0,0-8.49-1.66c-1.4,1.38-2.73,2.82-4,4.29-1,1.18-2,2.41-3,3.67-.48.63-.79,1.4-1.27,2a11.87,11.87,0,0,1-3.49,3.12Zm1.15,4a7.07,7.07,0,0,0-.44-.57L615.44,969c-.37-.4-.7-.83-1.09-1.19-.12-.11-.4-.05-.61-.06a3.22,3.22,0,0,0,0,.62c0,.1.16.19.24.28l7.47,8.09c.39.42.77.86,1.18,1.26a.69.69,0,0,0,.52.13C623.25,978.12,623.33,977.93,623.47,977.77Z"/>
    <path class="cls-30" d="M541.58,1036.72a7.07,7.07,0,0,1,2.7-5.55,70.39,70.39,0,0,1,8.66-6.5,28,28,0,0,0,2.47-1.38,20.19,20.19,0,0,0,2.21-2.13c.35-.36.3-.71-.07-1.12a3.5,3.5,0,0,1-.85-1.4,2.08,2.08,0,0,1,1.17-2.42,2.12,2.12,0,0,1,2.64.51q3.12,3.33,6.2,6.7c.95,1,1.92,2.05,2.84,3.11a2.16,2.16,0,0,1,.08,2.66,2.21,2.21,0,0,1-2.54.81,4.89,4.89,0,0,1-1.47-1.22c-.39-.43-.69-.47-1.13-.13a11.29,11.29,0,0,0-3.08,3.61,18.89,18.89,0,0,1-2.25,3.16c-1.86,2.12-3.74,4.24-5.73,6.24a6.5,6.5,0,0,1-7,1.66,6.68,6.68,0,0,1-4.74-5.38C541.64,1037.54,541.62,1037.13,541.58,1036.72Zm17.7-14.73a12.71,12.71,0,0,1-1,1.22,18.44,18.44,0,0,1-3.94,2.85,41.47,41.47,0,0,0-5.33,3.64,42.66,42.66,0,0,0-4.07,3.38,5.16,5.16,0,0,0,7.31,7.28c2.89-3,5.94-5.86,8-9.6a10.1,10.1,0,0,1,3.67-3.82Zm-.44-4.27c-.14.13-.34.22-.36.33a.76.76,0,0,0,.14.53c.46.53,1,1,1.43,1.54l7.33,7.94c.21.23.44.41.73.13s.11-.48-.09-.7l-8.73-9.44A2.5,2.5,0,0,0,558.84,1017.72Z"/>
  </g>
  <path class="cls-31" d="M110.53,880.2a4,4,0,0,1-1.35,5.25,3.87,3.87,0,0,1-3.74.32L78,874.07a4,4,0,0,1,.08-7.42l.34-.15A46,46,0,0,1,66,842.62a45.44,45.44,0,0,1,3-26.78l84.56,36.1C149.41,863.3,134.87,880.29,110.53,880.2ZM69.67,817.41a42.65,42.65,0,0,0-3.15,13.41,44.55,44.55,0,0,0,11.54,33.49A10.27,10.27,0,0,0,82,867.13c8.36,3.48,16.67,7.07,25,10.63.79.34,1.55.73,2.33,1.09a1.25,1.25,0,0,0,.51.09,44.08,44.08,0,0,0,9-.63,44.9,44.9,0,0,0,17.54-7,44.35,44.35,0,0,0,14.29-15.83c.51-.93.95-1.9,1.42-2.86Zm24.68,56.3L80.7,867.88A2.78,2.78,0,1,0,78.55,873l27.19,11.6a3.41,3.41,0,0,0,1.13.28,2.73,2.73,0,0,0,2.85-2.18,2.76,2.76,0,0,0-1.67-3.14Z"/>
  <path class="cls-32" d="M148.18,853.81l-24.65-11,.08-.19,26.27,10.68c-1,1.49-2,2.92-3,4.28a57.46,57.46,0,0,1-13.36,13.14,29.69,29.69,0,0,1-11.53,5,36.73,36.73,0,0,1-16.29-.51,40,40,0,0,1-3.84-1.25c-1.25-.49-2.45-1.1-3.67-1.66l.06-.16,1.77.76a37.43,37.43,0,0,0,16.92,2.51,31.58,31.58,0,0,0,17.38-6.7A65.08,65.08,0,0,0,148.18,853.81Z"/>
  <path class="cls-33" d="M277.39,964.61A18,18,0,0,1,295,979.42a18.25,18.25,0,0,1-9.27,19.47L250,1018.28c-.53.28-1,.59-1.59.84a14.74,14.74,0,0,0-4.4,3.3c-8,8.15-16,16.24-24,24.39a4.08,4.08,0,1,1-5.85-5.67c1.7-1.75,3.41-3.47,5.12-5.2l20.76-21.08a2.75,2.75,0,0,0,.45-.66q10.5-19.89,21-39.8a17.86,17.86,0,0,1,11.18-9.14A17,17,0,0,1,277.39,964.61Zm-29.73,49.49.09-.07.06-.16-.12.07-.09.1-.08.08Zm43.18-41.24-.17.07a1.93,1.93,0,0,0,0,.24,21.25,21.25,0,0,1-1.4,9.17,20.17,20.17,0,0,1-7.14,9.32c-2.88,2.06-5.8,4.06-8.7,6.09l-22.75,15.88-3.63,2.54,1.37,1.4,1.58-.84,35.07-19a16.76,16.76,0,0,0,3.84-2.84,16.94,16.94,0,0,0,3.57-18.92C292,974.87,291.39,973.88,290.84,972.86Zm-3.7-3.54-.06-.14-.31-.22a16.44,16.44,0,0,0-23.87,5.71q-9.4,17.69-18.71,35.43c-.36.7-.73,1.4-1.1,2.09l1.38,1.39c.07-.1.15-.2.22-.31q12-17.62,23.93-35.24a19.82,19.82,0,0,1,10.83-7.89A20.72,20.72,0,0,1,287.14,969.32Zm2.06,2.61L248,1014c.61-.52,1.27-1,1.94-1.46q15.47-10.82,31-21.62a19.76,19.76,0,0,0,8.33-19Zm-1-1.11a19.21,19.21,0,0,0-10.87,1.57,18,18,0,0,0-7.38,6c-3.79,5.48-7.5,11-11.24,16.53q-6.11,9-12.22,18l.09.1Zm-45.81,42.68c-.18.34-.38.66-.54,1a5.9,5.9,0,0,1-1.21,1.68q-11.32,11.46-22.62,22.94c-1,1-2,2-2.94,3a2.72,2.72,0,1,0,3.93,3.76q12.83-13.07,25.72-26.09a5.41,5.41,0,0,1,1-.74c.45-.28.93-.51,1.39-.76Z"/>
  <path class="cls-34" d="M818.63,876.17a4,4,0,0,1-1.35,5.25,3.89,3.89,0,0,1-3.75.32L786.12,870a4,4,0,0,1-2.52-3.74,3.94,3.94,0,0,1,2.61-3.68l.34-.15a46.08,46.08,0,0,1-9.47-50.66l84.57,36.1C857.5,859.27,843,876.26,818.63,876.17Zm-40.86-62.79a42.38,42.38,0,0,0-3.15,13.4,44.57,44.57,0,0,0,11.53,33.5,10.31,10.31,0,0,0,3.9,2.82c8.36,3.48,16.67,7.07,25,10.63.79.34,1.55.73,2.33,1.09a1.28,1.28,0,0,0,.51.09,44.08,44.08,0,0,0,9-.63,44.7,44.7,0,0,0,17.54-7.06,44.15,44.15,0,0,0,14.29-15.82c.51-.93,1-1.9,1.42-2.86Zm24.67,56.29-13.64-5.82a2.78,2.78,0,1,0-2.15,5.11l27.19,11.6a3.36,3.36,0,0,0,1.12.28,2.76,2.76,0,0,0,1.18-5.32Z"/>
  <path class="cls-35" d="M856.28,849.78l-24.65-11,.08-.19L858,849.23c-1.05,1.49-2,2.91-3,4.28a57.27,57.27,0,0,1-13.36,13.14,29.8,29.8,0,0,1-11.52,5,36.92,36.92,0,0,1-16.3-.51,39.81,39.81,0,0,1-3.83-1.25c-1.25-.49-2.45-1.1-3.68-1.66l.07-.16c.59.25,1.17.51,1.76.75A37.44,37.44,0,0,0,825,871.33a31.61,31.61,0,0,0,17.39-6.7A65.94,65.94,0,0,0,856.28,849.78Z"/>
  <path class="cls-36" d="M990.53,951.18A18,18,0,0,1,1008.11,966a18.24,18.24,0,0,1-9.27,19.47q-17.83,9.7-35.69,19.38c-.53.29-1,.6-1.59.85a14.45,14.45,0,0,0-4.4,3.3c-8,8.15-16,16.24-24,24.39a4.07,4.07,0,1,1-5.84-5.67c1.69-1.75,3.41-3.47,5.11-5.2q10.39-10.53,20.77-21.08a3.34,3.34,0,0,0,.45-.66l21-39.8a17.89,17.89,0,0,1,11.18-9.14A16.33,16.33,0,0,1,990.53,951.18Zm-29.73,49.49.09-.07.07-.16-.13.07-.09.09-.08.08ZM1004,959.42l-.16.08a1.92,1.92,0,0,0,0,.24,21.09,21.09,0,0,1-1.39,9.17,20.26,20.26,0,0,1-7.15,9.32c-2.88,2-5.8,4.06-8.7,6.09l-22.75,15.87-3.63,2.55,1.37,1.4c.53-.28,1.06-.55,1.59-.84l35.07-19a16.4,16.4,0,0,0,3.84-2.84,16.92,16.92,0,0,0,3.57-18.91C1005.17,961.44,1004.54,960.45,1004,959.42Zm-3.7-3.53c0-.09,0-.12-.06-.14l-.3-.22a16.44,16.44,0,0,0-23.87,5.71c-6.28,11.79-12.48,23.62-18.71,35.43l-1.1,2.09,1.37,1.39.22-.31q12-17.62,23.93-35.24a19.82,19.82,0,0,1,10.83-7.89A20.56,20.56,0,0,1,1000.28,955.89Zm2.07,2.61-41.23,42c.61-.52,1.28-1,2-1.46q15.46-10.82,30.94-21.62a19.74,19.74,0,0,0,8.34-19Zm-1-1.11A19.14,19.14,0,0,0,990.5,959a17.94,17.94,0,0,0-7.38,6c-3.78,5.48-7.49,11-11.23,16.53l-12.23,18,.1.1Zm-45.8,42.68c-.19.34-.38.66-.54,1a5.93,5.93,0,0,1-1.22,1.68q-11.31,11.46-22.61,22.94c-1,1-2,2-2.94,3a2.72,2.72,0,1,0,3.92,3.76q12.84-13.08,25.72-26.09a5,5,0,0,1,1-.74c.46-.28.93-.51,1.39-.76Z"/>
</svg>
